<svg width="206" height="125" viewBox="0 0 206 125" fill="none" xmlns="http://www.w3.org/2000/svg">
<path d="M39.94 113.7C39.94 113.247 40.0533 113.077 40.28 113.19C40.3933 113.303 40.5067 113.587 40.62 114.04C41.1867 118.8 39.5433 121.69 35.69 122.71C32.97 123.39 28.55 123.163 22.43 122.03L18.69 121.35L15.12 120.5C12.2867 119.933 10.1333 119.593 8.66 119.48C4.35333 119.027 2.2 119.933 2.2 122.2C1.74667 122.427 1.35 122.03 1.01 121.01C0.783333 119.99 0.896666 118.857 1.35 117.61C1.80333 116.137 2.71 114.89 4.07 113.87C5.65667 112.51 7.75333 111.66 10.36 111.32C12.5133 111.093 14.95 111.15 17.67 111.49C17.7833 109.45 18.2933 107.353 19.2 105.2C21.24 99.3067 24.7533 91.4867 29.74 81.74C31.6667 78 34.0467 73.5233 36.88 68.31L40.45 61.51L44.36 54.54C57.0533 31.08 64.1933 15.3267 65.78 7.27999C66.12 5.23999 65.61 4.04999 64.25 3.71C63.0033 3.37 61.53 3.70999 59.83 4.72999C54.39 7.56333 47.8733 16.7433 40.28 32.27C37.4467 38.05 34.67 44.17 31.95 50.63C29.6833 56.1833 27.9833 60.83 26.85 64.57L26.17 64.4L25.32 64.23C24.4133 64.0033 23.6767 63.6633 23.11 63.21C21.2967 61.9633 21.0133 59.81 22.26 56.75C26.2267 47.23 31.7233 36.9733 38.75 25.98C46.7967 13.4 53.37 5.69333 58.47 2.85999C64.0233 0.13999 68.2733 0.253325 71.22 3.19999C73.94 5.91999 74.8467 10.1133 73.94 15.78C72.6933 22.8067 65.8367 39.0133 53.37 64.4L49.8 71.88L46.23 79.19C43.2833 85.0833 41.0167 89.6733 39.43 92.96C34.67 102.933 31.4967 110.017 29.91 114.21H30.25L30.93 114.38L32.29 114.55C33.5367 114.777 34.67 114.947 35.69 115.06C38.5233 115.287 39.94 114.833 39.94 113.7ZM41.98 83.27C42.8867 81.23 44.0767 78.85 45.55 76.13L46.57 74.6L47.25 73.24C47.93 72.22 48.3833 71.4833 48.61 71.03C47.7033 71.9367 46.6833 73.4667 45.55 75.62C44.0767 78 42.83 80.55 41.81 83.27H41.98ZM21.24 110.81C19.9933 108.543 22.8833 100.667 29.91 87.18C32.29 82.6467 35.01 77.7167 38.07 72.39C39.2033 70.35 40.28 68.4233 41.3 66.61C42.2067 65.1367 42.9433 63.9467 43.51 63.04C42.83 63.72 41.13 66.3267 38.41 70.86C35.35 75.96 32.5167 81.1167 29.91 86.33C22.2033 100.837 19.3133 108.997 21.24 110.81ZM68.67 4.04999C71.6167 9.71666 70.5967 19.0667 65.61 32.1C64.0233 36.0667 61.9267 40.7133 59.32 46.04L57.96 48.93L57.28 50.29L56.77 51.48C55.8633 53.18 55.2967 54.37 55.07 55.05C55.41 54.5967 55.92 53.7467 56.6 52.5C57.5067 51.0267 58.4133 49.3833 59.32 47.57C61.9267 42.5833 64.1367 37.71 65.95 32.95C71.5033 18.7833 72.41 9.15 68.67 4.04999ZM2.71 119.48C5.54333 115.627 10.53 114.437 17.67 115.91C20.05 116.363 22.77 117.157 25.83 118.29L27.53 118.97L29.06 119.48C30.3067 120.047 31.1567 120.387 31.61 120.5C30.59 119.82 28.8333 119.027 26.34 118.12C23.3933 116.987 20.5033 116.137 17.67 115.57C9.62333 114.21 4.63667 115.513 2.71 119.48ZM23.79 60.49C22.6567 58.11 26 50.4033 33.82 37.37C36.54 33.0633 39.6 28.3033 43 23.09C44.1333 21.2767 45.3233 19.4067 46.57 17.48C47.0233 16.8 47.4767 16.12 47.93 15.44C48.27 14.9867 48.61 14.5333 48.95 14.08C48.27 14.6467 46.4 17.14 43.34 21.56C40.0533 26.4333 36.88 31.42 33.82 36.52C25.32 50.5733 21.9767 58.5633 23.79 60.49ZM51.67 49.78C52.5767 47.74 53.7667 45.36 55.24 42.64L56.26 41.11L56.94 39.75C57.62 38.73 58.0733 37.9933 58.3 37.54C57.3933 38.4467 56.3733 39.9767 55.24 42.13C53.7667 44.51 52.52 47.06 51.5 49.78H51.67ZM79.5752 121.69C70.0552 118.063 64.6152 111.547 63.2552 102.14C62.1219 94.0933 63.9352 85.5933 68.6952 76.64C73.4552 68.0267 79.0652 62.36 85.5252 59.64C92.7786 56.4667 98.7852 58.28 103.545 65.08C105.245 67.5733 106.039 71.2 105.925 75.96C105.812 81.1733 104.509 85.82 102.015 89.9C100.202 92.96 98.5019 94.2633 96.9152 93.81C96.2352 93.6967 95.4986 93.3 94.7052 92.62L93.6852 91.6L92.6652 90.58C97.0852 85.9333 100.089 81.4567 101.675 77.15C103.149 73.1833 103.205 70.0667 101.845 67.8C99.0119 63.1533 95.2152 62.7 90.4552 66.44C86.1486 69.7267 82.2386 75.3367 78.7252 83.27C75.0986 91.3167 73.2286 98.6833 73.1152 105.37C73.1152 112.963 75.5519 117.723 80.4252 119.65C88.2452 122.597 95.3286 122.087 101.675 118.12C107.342 114.607 111.535 108.883 114.255 100.95C118.449 89.9567 118.109 76.0167 113.235 59.13L111.875 54.37L110.345 49.44C109.212 45.7 108.362 42.5267 107.795 39.92C106.209 32.78 105.812 26.6033 106.605 21.39C107.285 16.8567 108.872 12.72 111.365 8.97999C114.425 4.33332 117.995 1.72666 122.075 1.15999C125.362 0.706656 128.819 1.55666 132.445 3.71C136.072 5.86333 139.245 8.92333 141.965 12.89C148.312 22.6367 149.275 33.4033 144.855 45.19C143.495 48.93 141.002 52.2167 137.375 55.05C133.749 57.9967 130.235 59.2433 126.835 58.79C133.069 78.85 132.729 94.49 125.815 105.71C120.942 113.53 114.199 118.97 105.585 122.03C96.8586 125.203 88.1886 125.09 79.5752 121.69ZM139.925 45.7C141.852 36.52 140.265 26.8867 135.165 16.8C133.012 12.38 130.632 9.20666 128.025 7.27999C125.192 5.23999 122.642 4.95666 120.375 6.42999C115.842 9.60333 114.312 15.3267 115.785 23.6C116.352 26.7733 117.429 30.8533 119.015 35.84C119.582 37.54 120.375 39.75 121.395 42.47L123.945 49.61C127.685 52.1033 131.085 52.9533 134.145 52.16C137.205 51.48 139.132 49.3267 139.925 45.7ZM98.1052 62.02C92.0986 60.2067 87.1119 62.02 83.1452 67.46C81.6719 69.3867 80.4819 71.5967 79.5752 74.09C78.7819 76.13 78.3852 77.7167 78.3852 78.85C78.9519 76.6967 79.6319 74.7133 80.4252 72.9C81.5586 70.52 82.8052 68.48 84.1652 66.78C87.9052 62.4733 92.5519 60.8867 98.1052 62.02ZM130.235 5.23999C131.935 6.48666 133.919 8.24333 136.185 10.51L137.375 11.7L138.565 12.89C139.359 13.57 140.039 14.1367 140.605 14.59C139.925 13.57 138.679 12.21 136.865 10.51C134.825 8.58333 132.559 6.77 130.065 5.06999L130.235 5.23999ZM120.205 97.38C122.585 96.2467 122.415 87.5767 119.695 71.37C118.789 65.59 117.712 59.8667 116.465 54.2C115.332 48.9867 114.539 45.9267 114.085 45.02L114.255 45.7L114.425 46.72C114.652 47.5133 114.822 48.3067 114.935 49.1C115.389 51.2533 115.842 53.4067 116.295 55.56C117.542 61.68 118.562 67.2333 119.355 72.22C121.849 87.18 122.132 95.5667 120.205 97.38ZM137.035 51.99C141.342 50.63 143.269 45.87 142.815 37.71C142.702 34.7633 142.249 31.76 141.455 28.7C140.889 26.0933 140.322 24.28 139.755 23.26C139.869 23.7133 140.095 24.5633 140.435 25.81L140.775 27.51L141.285 29.21C141.965 32.3833 142.362 35.16 142.475 37.54C143.042 44.9067 141.229 49.7233 137.035 51.99ZM104.055 80.89C102.582 82.59 100.712 84.46 98.4452 86.5L97.0852 87.69L95.8952 88.71C95.1019 89.39 94.4786 89.9567 94.0252 90.41C95.1586 89.8433 96.6319 88.7667 98.4452 87.18C100.485 85.2533 102.412 83.1567 104.225 80.89H104.055ZM112.215 10.85C108.362 15.8367 108.985 25.47 114.085 39.75C115.785 44.6233 117.882 49.5533 120.375 54.54C121.282 56.4667 122.132 58.1667 122.925 59.64C123.605 60.8867 124.115 61.7367 124.455 62.19C124.229 61.51 123.719 60.32 122.925 58.62L122.415 57.43L121.735 56.07L120.375 53.18C117.995 47.74 116.069 42.98 114.595 38.9C109.835 25.7533 109.042 16.4033 112.215 10.85ZM76.3452 117.78C72.2652 115.74 70.0552 111.093 69.7152 103.84C69.6019 101.46 69.6586 98.6833 69.8852 95.51C69.9986 94.6033 70.1119 93.4133 70.2252 91.94L70.3952 90.58L70.5652 89.39C70.1119 90.5233 69.7719 92.3933 69.5452 95C69.2052 98.06 69.0919 101.007 69.2052 103.84C69.7719 111.773 72.1519 116.42 76.3452 117.78ZM123.435 100.95C122.869 102.083 122.245 103.273 121.565 104.52C120.999 105.427 120.319 106.56 119.525 107.92C117.939 110.527 116.975 112.227 116.635 113.02C117.542 112.113 118.619 110.583 119.865 108.43C121.225 106.05 122.415 103.5 123.435 100.78V100.95ZM171.807 115.4C170.56 114.947 169.994 114.267 170.107 113.36C170.107 113.02 170.22 112.737 170.447 112.51L170.617 112.17L170.787 112C172.147 112.453 173.054 111.547 173.507 109.28C174.074 106.333 174.244 101.233 174.017 93.98C162.117 94.2067 155.09 92.7333 152.937 89.56C151.69 87.52 151.634 85.5933 152.767 83.78C153.22 83.2133 153.73 82.8733 154.297 82.76C154.864 82.76 155.147 82.9867 155.147 83.44C155.034 84.9133 156.79 85.82 160.417 86.16C161.89 86.2733 163.874 86.2733 166.367 86.16H169.937L173.677 85.99C173.45 73.2967 174.924 65.8733 178.097 63.72C180.137 62.4733 182.064 62.4167 183.877 63.55C184.444 64.0033 184.784 64.5133 184.897 65.08C184.897 65.6467 184.67 65.93 184.217 65.93C182.63 65.8167 181.724 67.7433 181.497 71.71C181.384 73.2967 181.384 75.45 181.497 78.17V81.91L181.667 85.82C185.974 85.82 190.054 85.99 193.907 86.33C197.76 86.7833 200.65 87.69 202.577 89.05C204.957 90.75 205.637 93.0167 204.617 95.85C204.164 97.0967 203.484 97.6633 202.577 97.55C202.237 97.55 201.954 97.4367 201.727 97.21L201.387 97.04L201.217 96.87C201.67 95.51 200.764 94.6033 198.497 94.15C195.664 93.6967 190.11 93.5833 181.837 93.81C181.837 97.6633 181.667 101.29 181.327 104.69C180.874 108.543 179.967 111.433 178.607 113.36C176.907 115.74 174.64 116.42 171.807 115.4ZM171.297 112.51C174.47 112.057 176.794 109.507 178.267 104.86C179.4 101.347 179.91 97.0967 179.797 92.11L182.177 91.6H180.987L179.797 91.77C179.797 90.6367 179.684 89.2767 179.457 87.69C181.95 87.5767 184.104 87.52 185.917 87.52C188.637 87.52 191.017 87.7467 193.057 88.2C198.61 89.22 202.067 91.6567 203.427 95.51C202.86 91.8833 199.687 89.39 193.907 88.03C191.64 87.4633 189.09 87.1233 186.257 87.01C183.877 86.8967 181.61 86.9533 179.457 87.18L178.947 84.46V85.65C178.947 86.2167 179.004 86.7833 179.117 87.35C178.21 87.35 177.304 87.4633 176.397 87.69C176.624 87.01 176.794 86.2733 176.907 85.48C177.134 84.46 177.36 83.3833 177.587 82.25C178.04 79.4167 178.21 76.64 178.097 73.92L177.927 74.09C177.814 76.13 177.587 78.68 177.247 81.74L176.907 83.44L176.737 84.97C176.51 86.1033 176.397 87.01 176.397 87.69H175.717L175.377 87.86C175.604 87.86 176.17 87.8033 177.077 87.69H179.117L179.287 89.56V91.77L177.757 91.94H176.227L172.827 92.11C169.88 92.11 167.33 91.94 165.177 91.6C159.284 90.58 155.6 88.03 154.127 83.95C154.694 87.8033 158.15 90.3533 164.497 91.6C166.877 92.1667 169.54 92.45 172.487 92.45C174.867 92.45 177.134 92.3367 179.287 92.11C179.514 96.9833 179.174 101.007 178.267 104.18C177.02 108.487 174.697 111.263 171.297 112.51ZM182.857 63.21C178.777 63.7767 176.17 67.5167 175.037 74.43C174.584 76.9233 174.357 79.7 174.357 82.76C174.357 85.3667 174.527 87.6333 174.867 89.56C171.807 88.9933 168.464 88.71 164.837 88.71L165.007 88.88C167.84 88.9933 171.127 89.39 174.867 90.07L175.207 91.26V90.58L175.037 90.07L176.057 90.24H177.077C177.757 90.3533 178.324 90.41 178.777 90.41L175.037 89.56L174.867 88.2V86.5C174.754 85.2533 174.697 84.0633 174.697 82.93C174.584 79.9833 174.697 77.3767 175.037 75.11C176.057 68.7633 178.664 64.7967 182.857 63.21Z" fill="#AF946B"/>
</svg>
