<svg width="20" height="20" viewBox="0 0 20 20" fill="none" xmlns="http://www.w3.org/2000/svg">
<path d="M16.1419 16.8604L15.7536 16.403L15.7393 16.4151L15.7258 16.4281L16.1419 16.8604ZM3.36576 15.7096L3.88538 16.0096L4.09325 15.6496L3.82917 15.3285L3.36576 15.7096ZM1.44233 19.0411L0.92271 18.7411L0.403095 19.6411H1.44233V19.0411ZM9.26715 19.0411L9.29268 18.4417L9.27992 18.4411H9.26715V19.0411ZM16.5303 17.3178C18.6033 15.5578 19.9203 12.9307 19.9203 9.99658H18.7203C18.7203 12.5636 17.5695 14.8613 15.7536 16.403L16.5303 17.3178ZM19.9203 9.99658C19.9203 4.69465 15.6222 0.396582 10.3203 0.396582V1.59658C14.9595 1.59658 18.7203 5.35739 18.7203 9.99658H19.9203ZM10.3203 0.396582C5.01838 0.396582 0.720312 4.69465 0.720312 9.99658H1.92031C1.92031 5.35739 5.68112 1.59658 10.3203 1.59658V0.396582ZM0.720312 9.99658C0.720312 12.3098 1.53922 14.4333 2.90236 16.0908L3.82917 15.3285C2.63615 13.8779 1.92031 12.0216 1.92031 9.99658H0.720312ZM2.84615 15.4096L0.92271 18.7411L1.96194 19.3411L3.88538 16.0096L2.84615 15.4096ZM1.44233 19.6411H9.26715V18.4411H1.44233V19.6411ZM15.7258 16.4281C14.9317 17.1925 13.1705 18.6068 9.29268 18.4417L9.24163 19.6406C13.5047 19.8221 15.5725 18.2413 16.558 17.2927L15.7258 16.4281Z" fill="black"/>
<circle cx="6.32031" cy="10" r="1" fill="black"/>
<circle cx="10.3203" cy="10" r="1" fill="black"/>
<circle cx="14.3203" cy="10" r="1" fill="black"/>
</svg>
