<svg width="21" height="20" viewBox="0 0 21 20" fill="none" xmlns="http://www.w3.org/2000/svg">
<g clip-path="url(#clip0)">
<path d="M20.3203 9.44143L11.0095 0.130615V6.2303C8.22004 6.37655 5.61828 7.53253 3.62832 9.52249C1.49512 11.6557 0.320312 14.4919 0.320312 17.5087V19.8695L1.45582 17.7998C3.22746 14.5704 6.61883 12.5643 10.3063 12.5643C10.5402 12.5643 10.7752 12.5726 11.0095 12.589V18.7523L20.3203 9.44143ZM10.3063 11.3542C7.00387 11.3542 3.91332 12.7914 1.79309 15.2169C2.83348 10.7568 6.84215 7.42456 11.6145 7.42456H12.2196V3.05202L18.6089 9.4414L12.2196 15.8308V11.5051L11.6889 11.4394C11.2323 11.3829 10.7671 11.3542 10.3063 11.3542Z" fill="black"/>
</g>
<defs>
<clipPath id="clip0">
<rect width="20" height="20" fill="white" transform="translate(0.320312)"/>
</clipPath>
</defs>
</svg>
