<svg width="238" height="58" viewBox="0 0 238 58" fill="none" xmlns="http://www.w3.org/2000/svg">
<path d="M12.18 3H11.67L1.02 24H3.87C3.87 24 3.87 23.79 3.75 23.76C3.48 23.67 3.18 23.13 3.18 22.23C3.18 21.42 3.42 20.31 4.11 18.93L10.65 6L17.49 19.47C15.36 17.22 12.18 15.51 9.45 15.51C7.62 15.51 6 16.23 4.98 18.09C6.15 16.53 7.71 15.87 9.36 15.87C12.9 15.87 16.86 18.72 18.6 21.66L19.8 24H22.83L12.18 3ZM29.9677 24H32.7277V3.51L34.9777 3.48C39.2377 3.54 41.3377 6.24 41.3377 8.82C41.3377 11.25 39.5077 13.56 35.9077 13.56C35.0377 13.56 34.1077 13.44 33.0577 13.14C34.4977 13.77 35.8177 14.13 36.9877 14.25C41.2477 15.48 40.3177 24.33 45.8677 24.33C46.4677 24.33 47.1577 24.21 47.9077 24C44.0977 24.45 44.8777 15.42 38.6677 14.28C42.1777 13.98 44.1877 11.46 44.1877 8.88C44.1877 5.97 41.6377 3 35.6977 3H29.9677V24ZM63.5963 2.55C55.3763 2.55 51.2663 8.01 51.2663 13.5C51.2663 18.96 55.3763 24.45 63.5963 24.45C71.8463 24.45 75.9563 18.96 75.9563 13.5C75.9563 8.01 71.8463 2.55 63.5963 2.55ZM65.1263 23.76C58.1063 23.76 54.0863 17.31 54.0863 11.64C54.0863 7.2 56.5763 3.24 62.0663 3.24C69.0863 3.24 73.1363 9.66 73.1363 15.33C73.1363 19.77 70.6463 23.76 65.1263 23.76ZM93.2285 24H93.7685L102.049 5.85L104.209 24H107.029L104.539 3H102.829L94.8185 20.49L86.8385 3H84.5285L82.0685 24H84.9785C84.9785 24 84.9785 23.79 84.8585 23.76C84.3785 23.61 83.1785 22.2 83.1785 19.08C83.1785 18.6 83.2085 18.03 83.2685 17.46L84.7085 5.4L93.2285 24ZM124.812 3H124.302L113.652 24H116.502C116.502 24 116.502 23.79 116.382 23.76C116.112 23.67 115.812 23.13 115.812 22.23C115.812 21.42 116.052 20.31 116.742 18.93L123.282 6L130.122 19.47C127.992 17.22 124.812 15.51 122.082 15.51C120.252 15.51 118.632 16.23 117.612 18.09C118.782 16.53 120.342 15.87 121.992 15.87C125.532 15.87 129.492 18.72 131.232 21.66L132.432 24H135.462L124.812 3ZM148.878 24V3.48H149.418C155.508 3.48 156.048 5.13 156.498 5.64C156.528 5.73 156.708 5.73 156.708 5.73L155.808 3H139.188L138.288 5.73C138.288 5.73 138.468 5.73 138.498 5.64C139.458 4.71 139.518 3.48 145.578 3.48H146.148V24H148.878ZM163.837 24H166.267C166.267 24 166.267 23.79 166.147 23.76C165.607 23.58 164.317 21.72 164.317 17.46V6.12L180.997 24H181.477V3H179.107C179.107 3 179.107 3.21 179.197 3.24C179.737 3.42 180.997 5.34 180.997 8.82V20.04L165.097 3H163.837V24ZM201.245 2.55C193.025 2.55 188.915 8.01 188.915 13.5C188.915 18.96 193.025 24.45 201.245 24.45C209.495 24.45 213.605 18.96 213.605 13.5C213.605 8.01 209.495 2.55 201.245 2.55ZM202.775 23.76C195.755 23.76 191.735 17.31 191.735 11.64C191.735 7.2 194.225 3.24 199.715 3.24C206.735 3.24 210.785 9.66 210.785 15.33C210.785 19.77 208.295 23.76 202.775 23.76ZM221.074 24H235.054L235.864 21.78C235.864 21.78 235.654 21.78 235.624 21.87C235.414 22.35 233.194 23.52 227.734 23.52H223.804V3.48H226.924C231.334 3.48 234.094 4.17 234.484 4.83C234.514 4.89 234.754 4.92 234.754 4.92L234.394 3H221.074V24ZM224.164 14.34C224.584 13.23 225.214 12.87 225.964 12.87C227.404 12.87 229.264 14.31 230.734 14.31C231.394 14.31 231.994 13.98 232.414 13.05C232.024 13.56 231.514 13.77 230.944 13.77C229.444 13.77 227.524 12.39 226.084 12.39C225.214 12.39 224.524 12.84 224.164 14.34Z" fill="#89785F"/>
<path d="M45.986 53L41.162 40.994H42.872L46.922 51.362L50.972 40.994H52.682L47.84 53H45.986ZM64.5117 53V40.994H66.0057V53H64.5117ZM87.5743 53L80.5723 43.424V53H79.0783V40.994H80.6083L87.5203 50.372V40.994H89.0143V53H87.5743ZM102.082 53V40.994H109.948V42.326H103.576V46.196H109.822V47.528H103.576V51.668H109.948V53H102.082ZM126.082 53V47.924L121.348 40.994H123.094L126.82 46.574L130.546 40.994H132.292L127.576 47.924V53H126.082ZM151.543 53L150.481 50.336H144.505L143.443 53H141.733L146.557 40.994H148.411L153.253 53H151.543ZM147.493 42.542L144.937 49.004H150.031L147.493 42.542ZM172.031 53L168.971 48.23H166.577V53H165.083V40.994H169.907C170.459 40.994 170.963 41.078 171.419 41.246C171.875 41.414 172.271 41.66 172.607 41.984C172.943 42.296 173.201 42.674 173.381 43.118C173.573 43.562 173.669 44.06 173.669 44.612C173.669 45.152 173.585 45.632 173.417 46.052C173.249 46.472 173.021 46.826 172.733 47.114C172.445 47.402 172.109 47.63 171.725 47.798C171.353 47.966 170.963 48.068 170.555 48.104L173.795 53H172.031ZM169.727 46.916C170.447 46.916 171.023 46.706 171.455 46.286C171.899 45.854 172.121 45.296 172.121 44.612C172.121 43.928 171.899 43.376 171.455 42.956C171.023 42.536 170.447 42.326 169.727 42.326H166.577V46.916H169.727ZM186.294 53V40.994H190.398C191.334 40.994 192.18 41.15 192.936 41.462C193.692 41.762 194.334 42.182 194.862 42.722C195.402 43.262 195.816 43.898 196.104 44.63C196.404 45.362 196.554 46.154 196.554 47.006C196.554 47.858 196.404 48.65 196.104 49.382C195.816 50.114 195.402 50.75 194.862 51.29C194.334 51.818 193.692 52.238 192.936 52.55C192.18 52.85 191.334 53 190.398 53H186.294ZM190.398 51.668C191.13 51.668 191.778 51.548 192.342 51.308C192.918 51.056 193.404 50.72 193.8 50.3C194.196 49.88 194.496 49.388 194.7 48.824C194.904 48.26 195.006 47.654 195.006 47.006C195.006 46.358 194.904 45.752 194.7 45.188C194.496 44.612 194.196 44.114 193.8 43.694C193.416 43.274 192.936 42.944 192.36 42.704C191.796 42.452 191.142 42.326 190.398 42.326H187.788V51.668H190.398Z" fill="#89785F"/>
</svg>
