<svg width="238" height="62" viewBox="0 0 238 62" fill="none" xmlns="http://www.w3.org/2000/svg">
<path d="M12.18 3H11.67L1.02 24H3.87C3.87 24 3.87 23.79 3.75 23.76C3.48 23.67 3.18 23.13 3.18 22.23C3.18 21.42 3.42 20.31 4.11 18.93L10.65 6L17.49 19.47C15.36 17.22 12.18 15.51 9.45 15.51C7.62 15.51 6 16.23 4.98 18.09C6.15 16.53 7.71 15.87 9.36 15.87C12.9 15.87 16.86 18.72 18.6 21.66L19.8 24H22.83L12.18 3ZM29.9677 24H32.7277V3.51L34.9777 3.48C39.2377 3.54 41.3377 6.24 41.3377 8.82C41.3377 11.25 39.5077 13.56 35.9077 13.56C35.0377 13.56 34.1077 13.44 33.0577 13.14C34.4977 13.77 35.8177 14.13 36.9877 14.25C41.2477 15.48 40.3177 24.33 45.8677 24.33C46.4677 24.33 47.1577 24.21 47.9077 24C44.0977 24.45 44.8777 15.42 38.6677 14.28C42.1777 13.98 44.1877 11.46 44.1877 8.88C44.1877 5.97 41.6377 3 35.6977 3H29.9677V24ZM63.5963 2.55C55.3763 2.55 51.2663 8.01 51.2663 13.5C51.2663 18.96 55.3763 24.45 63.5963 24.45C71.8463 24.45 75.9563 18.96 75.9563 13.5C75.9563 8.01 71.8463 2.55 63.5963 2.55ZM65.1263 23.76C58.1063 23.76 54.0863 17.31 54.0863 11.64C54.0863 7.2 56.5763 3.24 62.0663 3.24C69.0863 3.24 73.1363 9.66 73.1363 15.33C73.1363 19.77 70.6463 23.76 65.1263 23.76ZM93.2285 24H93.7685L102.049 5.85L104.209 24H107.029L104.539 3H102.829L94.8185 20.49L86.8385 3H84.5285L82.0685 24H84.9785C84.9785 24 84.9785 23.79 84.8585 23.76C84.3785 23.61 83.1785 22.2 83.1785 19.08C83.1785 18.6 83.2085 18.03 83.2685 17.46L84.7085 5.4L93.2285 24ZM124.812 3H124.302L113.652 24H116.502C116.502 24 116.502 23.79 116.382 23.76C116.112 23.67 115.812 23.13 115.812 22.23C115.812 21.42 116.052 20.31 116.742 18.93L123.282 6L130.122 19.47C127.992 17.22 124.812 15.51 122.082 15.51C120.252 15.51 118.632 16.23 117.612 18.09C118.782 16.53 120.342 15.87 121.992 15.87C125.532 15.87 129.492 18.72 131.232 21.66L132.432 24H135.462L124.812 3ZM148.878 24V3.48H149.418C155.508 3.48 156.048 5.13 156.498 5.64C156.528 5.73 156.708 5.73 156.708 5.73L155.808 3H139.188L138.288 5.73C138.288 5.73 138.468 5.73 138.498 5.64C139.458 4.71 139.518 3.48 145.578 3.48H146.148V24H148.878ZM163.837 24H166.267C166.267 24 166.267 23.79 166.147 23.76C165.607 23.58 164.317 21.72 164.317 17.46V6.12L180.997 24H181.477V3H179.107C179.107 3 179.107 3.21 179.197 3.24C179.737 3.42 180.997 5.34 180.997 8.82V20.04L165.097 3H163.837V24ZM201.245 2.55C193.025 2.55 188.915 8.01 188.915 13.5C188.915 18.96 193.025 24.45 201.245 24.45C209.495 24.45 213.605 18.96 213.605 13.5C213.605 8.01 209.495 2.55 201.245 2.55ZM202.775 23.76C195.755 23.76 191.735 17.31 191.735 11.64C191.735 7.2 194.225 3.24 199.715 3.24C206.735 3.24 210.785 9.66 210.785 15.33C210.785 19.77 208.295 23.76 202.775 23.76ZM221.074 24H235.054L235.864 21.78C235.864 21.78 235.654 21.78 235.624 21.87C235.414 22.35 233.194 23.52 227.734 23.52H223.804V3.48H226.924C231.334 3.48 234.094 4.17 234.484 4.83C234.514 4.89 234.754 4.92 234.754 4.92L234.394 3H221.074V24ZM224.164 14.34C224.584 13.23 225.214 12.87 225.964 12.87C227.404 12.87 229.264 14.31 230.734 14.31C231.394 14.31 231.994 13.98 232.414 13.05C232.024 13.56 231.514 13.77 230.944 13.77C229.444 13.77 227.524 12.39 226.084 12.39C225.214 12.39 224.524 12.84 224.164 14.34Z" fill="white"/>
<path d="M48.584 57L45.938 47.316L43.292 57H41.672L38.252 44.994H39.908L42.572 55.002L45.326 44.994H46.568L49.322 55.002L51.968 44.994H53.624L50.204 57H48.584ZM65.5546 57V44.994H67.0486V57H65.5546ZM88.6173 57L81.6153 47.424V57H80.1213V44.994H81.6513L88.5633 54.372V44.994H90.0573V57H88.6173ZM103.125 57V44.994H110.991V46.326H104.619V50.196H110.865V51.528H104.619V55.668H110.991V57H103.125ZM127.125 57V51.924L122.391 44.994H124.137L127.863 50.574L131.589 44.994H133.335L128.619 51.924V57H127.125ZM152.586 57L151.524 54.336H145.548L144.486 57H142.776L147.6 44.994H149.454L154.296 57H152.586ZM148.536 46.542L145.98 53.004H151.074L148.536 46.542ZM173.074 57L170.014 52.23H167.62V57H166.126V44.994H170.95C171.502 44.994 172.006 45.078 172.462 45.246C172.918 45.414 173.314 45.66 173.65 45.984C173.986 46.296 174.244 46.674 174.424 47.118C174.616 47.562 174.712 48.06 174.712 48.612C174.712 49.152 174.628 49.632 174.46 50.052C174.292 50.472 174.064 50.826 173.776 51.114C173.488 51.402 173.152 51.63 172.768 51.798C172.396 51.966 172.006 52.068 171.598 52.104L174.838 57H173.074ZM170.77 50.916C171.49 50.916 172.066 50.706 172.498 50.286C172.942 49.854 173.164 49.296 173.164 48.612C173.164 47.928 172.942 47.376 172.498 46.956C172.066 46.536 171.49 46.326 170.77 46.326H167.62V50.916H170.77ZM187.337 57V44.994H191.441C192.377 44.994 193.223 45.15 193.979 45.462C194.735 45.762 195.377 46.182 195.905 46.722C196.445 47.262 196.859 47.898 197.147 48.63C197.447 49.362 197.597 50.154 197.597 51.006C197.597 51.858 197.447 52.65 197.147 53.382C196.859 54.114 196.445 54.75 195.905 55.29C195.377 55.818 194.735 56.238 193.979 56.55C193.223 56.85 192.377 57 191.441 57H187.337ZM191.441 55.668C192.173 55.668 192.821 55.548 193.385 55.308C193.961 55.056 194.447 54.72 194.843 54.3C195.239 53.88 195.539 53.388 195.743 52.824C195.947 52.26 196.049 51.654 196.049 51.006C196.049 50.358 195.947 49.752 195.743 49.188C195.539 48.612 195.239 48.114 194.843 47.694C194.459 47.274 193.979 46.944 193.403 46.704C192.839 46.452 192.185 46.326 191.441 46.326H188.831V55.668H191.441Z" fill="white"/>
</svg>
