<svg width="53" height="53" viewBox="0 0 53 53" fill="none" xmlns="http://www.w3.org/2000/svg">
<path d="M36.4532 16H31.0009C30.6988 16 30.454 16.2332 30.454 16.5208C30.454 16.8085 30.6988 17.0417 31.0009 17.0417H35.1413L24.5039 27.2695C24.2999 27.4752 24.3055 27.7981 24.5163 27.9973C24.7272 28.1965 25.0664 28.1987 25.2805 28.0028L35.9063 17.7865V21.7135C35.9063 22.0012 36.1511 22.2343 36.4532 22.2343C36.7552 22.2343 37 22.0012 37 21.7135V16.5208C37 16.2332 36.7552 16 36.4532 16Z" fill="#AFAFAF"/>
<path d="M33.7262 27.1715C33.4242 27.1715 33.1794 27.4046 33.1794 27.6923V33.3958C33.1783 34.2585 32.4445 34.9573 31.5387 34.9583H18.7344C17.8286 34.9573 17.0948 34.2585 17.0938 33.3958V21.2012C17.0948 20.3386 17.8286 19.6397 18.7344 19.6387H24.7231C25.0251 19.6387 25.27 19.4056 25.27 19.1179C25.27 18.8302 25.0251 18.597 24.7231 18.597H18.7344C17.2249 18.5987 16.0017 19.7636 16 21.2012V33.3958C16.0017 34.8334 17.2249 35.9984 18.7344 36H31.5387C33.0482 35.9984 34.2714 34.8334 34.2731 33.3958V27.6923C34.2731 27.4046 34.0283 27.1715 33.7262 27.1715Z" fill="#AFAFAF"/>
<path d="M52.5 26.5C52.5 40.8594 40.8594 52.5 26.5 52.5C12.1406 52.5 0.5 40.8594 0.5 26.5C0.5 12.1406 12.1406 0.5 26.5 0.5C40.8594 0.5 52.5 12.1406 52.5 26.5Z" stroke="#AFAFAF"/>
</svg>
