<svg width="29" height="30" viewBox="0 0 29 30" fill="none" xmlns="http://www.w3.org/2000/svg">
<g filter="url(#filter0_b)">
<path d="M17.2754 15C17.2754 16.5857 16.0328 17.8711 14.5 17.8711C12.9672 17.8711 11.7246 16.5857 11.7246 15C11.7246 13.4143 12.9672 12.1289 14.5 12.1289C16.0328 12.1289 17.2754 13.4143 17.2754 15Z" fill="#89785F"/>
<path d="M20.9906 9.92015C20.8572 9.54616 20.6443 9.20764 20.3677 8.92978C20.0991 8.64368 19.7721 8.42349 19.4104 8.28548C19.117 8.1676 18.6763 8.0273 17.8645 7.98907C16.9863 7.94765 16.7231 7.93872 14.4999 7.93872C12.2765 7.93872 12.0133 7.94742 11.1353 7.98885C10.3235 8.0273 9.88259 8.1676 9.58943 8.28548C9.22768 8.42349 8.90045 8.64368 8.63207 8.92978C8.35551 9.20764 8.14266 9.54593 8.00903 9.92015C7.89508 10.2236 7.75945 10.6798 7.7225 11.5196C7.68246 12.4278 7.67383 12.7002 7.67383 15.0002C7.67383 17.3 7.68246 17.5724 7.7225 18.4808C7.75945 19.3206 7.89508 19.7765 8.00903 20.08C8.14266 20.4542 8.35529 20.7925 8.63185 21.0704C8.90045 21.3565 9.22746 21.5766 9.58921 21.7147C9.88259 21.8328 10.3235 21.9731 11.1353 22.0113C12.0133 22.0527 12.2763 22.0614 14.4997 22.0614C16.7233 22.0614 16.9866 22.0527 17.8643 22.0113C18.676 21.9731 19.117 21.8328 19.4104 21.7147C20.1365 21.4249 20.7105 20.8312 20.9906 20.08C21.1045 19.7765 21.2401 19.3206 21.2773 18.4808C21.3174 17.5724 21.3258 17.3 21.3258 15.0002C21.3258 12.7002 21.3174 12.4278 21.2773 11.5196C21.2404 10.6798 21.1047 10.2236 20.9906 9.92015ZM14.4999 19.4229C12.1385 19.4229 10.2242 17.4428 10.2242 15C10.2242 12.5571 12.1385 10.577 14.4999 10.577C16.8611 10.577 18.7754 12.5571 18.7754 15C18.7754 17.4428 16.8611 19.4229 14.4999 19.4229ZM18.9444 11.4358C18.3926 11.4358 17.9453 10.973 17.9453 10.4022C17.9453 9.83135 18.3926 9.36855 18.9444 9.36855C19.4962 9.36855 19.9436 9.83135 19.9436 10.4022C19.9434 10.973 19.4962 11.4358 18.9444 11.4358Z" fill="#89785F"/>
<path d="M14.5 0C6.4931 0 0 6.717 0 15C0 23.283 6.4931 30 14.5 30C22.5069 30 29 23.283 29 15C29 6.717 22.5069 0 14.5 0ZM22.7759 18.5511C22.7357 19.468 22.5947 20.094 22.389 20.6419C21.9564 21.7989 21.0723 22.7135 19.9539 23.161C19.4244 23.3739 18.8191 23.5194 17.933 23.5613C17.0451 23.6032 16.7614 23.6133 14.5002 23.6133C12.2388 23.6133 11.9554 23.6032 11.0673 23.5613C10.1812 23.5194 9.57581 23.3739 9.04635 23.161C8.49056 22.9447 7.98743 22.6057 7.57148 22.1674C7.148 21.7374 6.82033 21.2167 6.61124 20.6419C6.40548 20.0942 6.26454 19.468 6.22427 18.5513C6.18334 17.6326 6.17383 17.3392 6.17383 15C6.17383 12.6608 6.18334 12.3674 6.22405 11.4489C6.26432 10.532 6.40504 9.90601 6.6108 9.35806C6.81989 8.78334 7.14778 8.26263 7.57148 7.83257C7.98721 7.39426 8.49056 7.05528 9.04613 6.83899C9.57581 6.62613 10.1809 6.48056 11.0673 6.43867C11.9552 6.39679 12.2388 6.38672 14.5 6.38672C16.7612 6.38672 17.0448 6.39679 17.9327 6.4389C18.8191 6.48056 19.4242 6.62613 19.9539 6.83876C20.5094 7.05505 21.0128 7.39426 21.4287 7.83257C21.8522 8.26286 22.1801 8.78334 22.389 9.35806C22.595 9.90601 22.7357 10.532 22.7762 11.4489C22.8167 12.3674 22.8262 12.6608 22.8262 15C22.8262 17.3392 22.8167 17.6326 22.7759 18.5511Z" fill="#89785F"/>
</g>
<defs>
<filter id="filter0_b" x="-4" y="-4" width="37" height="38" filterUnits="userSpaceOnUse" color-interpolation-filters="sRGB">
<feFlood flood-opacity="0" result="BackgroundImageFix"/>
<feGaussianBlur in="BackgroundImage" stdDeviation="2"/>
<feComposite in2="SourceAlpha" operator="in" result="effect1_backgroundBlur"/>
<feBlend mode="normal" in="SourceGraphic" in2="effect1_backgroundBlur" result="shape"/>
</filter>
</defs>
</svg>
