<svg width="32" height="34" viewBox="0 0 32 34" fill="none" xmlns="http://www.w3.org/2000/svg">
<path d="M32 17C32 7.61016 24.8375 0 16 0C7.1625 0 0 7.61016 0 17C0 26.3898 7.1625 34 16 34C16.0938 34 16.1875 34 16.2812 33.9934V20.7652H12.8438V16.5086H16.2812V13.3742C16.2812 9.7418 18.3688 7.76289 21.4188 7.76289C22.8813 7.76289 24.1375 7.87578 24.5 7.92891V11.7273H22.4C20.7437 11.7273 20.4188 12.5641 20.4188 13.7926V16.502H24.3875L23.8687 20.7586H20.4188V33.3426C27.1063 31.3039 32 24.7629 32 17Z" fill="#242225"/>
</svg>
