<svg width="34" height="34" viewBox="0 0 34 34" fill="none" xmlns="http://www.w3.org/2000/svg">
<path d="M20.2539 17C20.2539 18.7971 18.7971 20.2539 17 20.2539C15.2029 20.2539 13.7461 18.7971 13.7461 17C13.7461 15.2029 15.2029 13.7461 17 13.7461C18.7971 13.7461 20.2539 15.2029 20.2539 17Z" fill="#242225"/>
<path d="M24.6098 11.2427C24.4534 10.8188 24.2038 10.4352 23.8796 10.1203C23.5647 9.79602 23.1813 9.54648 22.7572 9.39006C22.4132 9.25647 21.8965 9.09746 20.9447 9.05414C19.9152 9.00719 19.6065 8.99707 17.0001 8.99707C14.3934 8.99707 14.0847 9.00693 13.0554 9.05388C12.1036 9.09746 11.5867 9.25647 11.243 9.39006C10.8188 9.54648 10.4352 9.79602 10.1205 10.1203C9.79628 10.4352 9.54674 10.8186 9.39006 11.2427C9.25647 11.5867 9.09746 12.1036 9.05414 13.0554C9.00719 14.0847 8.99707 14.3934 8.99707 17.0001C8.99707 19.6065 9.00719 19.9152 9.05414 20.9448C9.09746 21.8965 9.25647 22.4132 9.39006 22.7572C9.54674 23.1813 9.79602 23.5647 10.1203 23.8796C10.4352 24.2038 10.8186 24.4534 11.2427 24.6098C11.5867 24.7437 12.1036 24.9027 13.0554 24.946C14.0847 24.9929 14.3931 25.0028 16.9998 25.0028C19.6068 25.0028 19.9155 24.9929 20.9445 24.946C21.8962 24.9027 22.4132 24.7437 22.7572 24.6098C23.6085 24.2814 24.2814 23.6085 24.6098 22.7572C24.7434 22.4132 24.9024 21.8965 24.946 20.9448C24.9929 19.9152 25.0028 19.6065 25.0028 17.0001C25.0028 14.3934 24.9929 14.0847 24.946 13.0554C24.9027 12.1036 24.7437 11.5867 24.6098 11.2427ZM17.0001 22.0124C14.2315 22.0124 11.9872 19.7684 11.9872 16.9998C11.9872 14.2312 14.2315 11.9872 17.0001 11.9872C19.7684 11.9872 22.0127 14.2312 22.0127 16.9998C22.0127 19.7684 19.7684 22.0124 17.0001 22.0124ZM22.2109 12.9604C21.5639 12.9604 21.0394 12.4359 21.0394 11.789C21.0394 11.142 21.5639 10.6175 22.2109 10.6175C22.8578 10.6175 23.3823 11.142 23.3823 11.789C23.3821 12.4359 22.8578 12.9604 22.2109 12.9604Z" fill="#242225"/>
<path d="M17 0C7.61259 0 0 7.61259 0 17C0 26.3874 7.61259 34 17 34C26.3874 34 34 26.3874 34 17C34 7.61259 26.3874 0 17 0ZM26.7028 21.0246C26.6556 22.0637 26.4904 22.7732 26.2491 23.3942C25.742 24.7055 24.7055 25.742 23.3942 26.2491C22.7735 26.4904 22.0637 26.6554 21.0248 26.7028C19.9839 26.7503 19.6513 26.7617 17.0003 26.7617C14.3489 26.7617 14.0166 26.7503 12.9754 26.7028C11.9365 26.6554 11.2268 26.4904 10.6061 26.2491C9.95445 26.004 9.36458 25.6198 8.87691 25.1231C8.38042 24.6357 7.99625 24.0455 7.75111 23.3942C7.50987 22.7735 7.34464 22.0637 7.29742 21.0248C7.24944 19.9836 7.23828 19.6511 7.23828 17C7.23828 14.3489 7.24944 14.0164 7.29716 12.9754C7.34438 11.9363 7.50935 11.2268 7.7506 10.6058C7.99573 9.95445 8.38016 9.36432 8.87691 8.87691C9.36432 8.38016 9.95445 7.99599 10.6058 7.75085C11.2268 7.50961 11.9363 7.34464 12.9754 7.29716C14.0164 7.24969 14.3489 7.23828 17 7.23828C19.6511 7.23828 19.9836 7.24969 21.0246 7.29742C22.0637 7.34464 22.7732 7.50961 23.3942 7.7506C24.0455 7.99573 24.6357 8.38016 25.1234 8.87691C25.6198 9.36458 26.0043 9.95445 26.2491 10.6058C26.4906 11.2268 26.6556 11.9363 26.7031 12.9754C26.7506 14.0164 26.7617 14.3489 26.7617 17C26.7617 19.6511 26.7506 19.9836 26.7028 21.0246Z" fill="#242225"/>
</svg>
