<svg width="152" height="197" viewBox="0 0 152 197" fill="none" xmlns="http://www.w3.org/2000/svg">
<path fill-rule="evenodd" clip-rule="evenodd" d="M148.264 54.4136C146.862 54.5154 145.593 54.6172 144.372 54.719C143.855 54.7816 142.947 54.7816 142.884 55.04C142.109 58.2113 138.75 57.6945 136.745 59.1118C134.866 60.4664 131.765 60.0827 128.531 60.5995C126.464 65.3839 124.264 59.7617 121.68 59.3075C122.009 61.8915 124.851 65.1881 120.521 65.9007C120.067 67.9052 119.612 69.6514 119.291 71.327C119.158 72.1727 119.291 73.0106 119.291 73.8484C119.229 74.7567 119.354 76.2445 119.033 76.3698C118.125 76.6282 116.966 76.5655 116.057 76.2445C115.22 75.9156 114.632 75.0151 113.857 74.4357C113.082 73.8484 112.181 73.4647 111.469 72.8774C110.889 72.4311 110.498 71.8438 110.044 71.327C109.597 70.7476 109.269 69.9724 108.689 69.6514C107.201 68.8057 105.588 68.1636 103.388 67.1926C103.325 67.1926 102.48 67.6468 101.446 68.1636C100.671 66.2843 99.9584 64.546 98.9952 62.1499C98.22 64.3502 97.7032 65.9633 97.0533 67.5842C94.5946 73.9189 91.7522 80.1831 89.7477 86.651C88.7141 89.9475 88.9725 93.7609 88.9725 97.3158C88.9725 102.578 89.0273 111.41 89.1212 119.319C88.4557 119.045 87.8057 118.747 87.1637 118.403C86.318 117.949 85.4645 117.62 84.611 117.385C84.5483 109.249 84.5483 101.325 84.517 95.4444C84.517 93.6982 84.8381 92.7273 82.442 92.7273C80.4453 92.7273 79.0201 91.3022 79.0828 88.9139C79.1454 87.0346 79.0201 85.1006 78.566 83.2918C77.3993 78.1786 80.5705 72.8148 85.7385 72.298C85.7385 68.3594 85.7385 64.4129 85.7385 60.4038C85.7385 56.5904 85.7385 52.8397 85.7385 49.0263C85.6759 49.0263 85.6133 49.0263 85.4801 49.089C85.0965 55.8152 84.6423 62.5414 84.2586 69.1972C84.0629 69.1972 83.9297 69.1972 83.734 69.1972C83.734 62.471 83.734 55.8152 83.734 49.089C81.2831 49.089 78.9575 49.089 76.4988 49.089C76.4988 54.9774 76.4988 60.5369 76.4988 66.0964C76.1777 66.0964 75.7862 66.0964 75.4652 66.0964C75.4652 60.4038 75.4652 54.719 75.4652 49.0263C75.1441 49.0263 74.7526 49.0263 74.4316 49.0263C74.4316 55.4942 74.4316 61.9542 74.4316 68.4846C74.1732 68.4846 73.8443 68.4846 73.5859 68.4846C73.5859 66.0259 73.5859 63.6377 73.5859 61.179C69.1931 73.4647 73.398 85.6174 73.5233 97.8953C73.6564 95.2486 73.7817 92.5942 73.9774 90.0102C74.1732 90.0102 74.3611 90.0102 74.5569 90.0728C74.5569 96.7912 74.69 110.753 74.7135 118.677C74.4237 118.81 74.1419 118.951 73.86 119.092C73.672 116.625 73.3275 114.566 73.3275 113.634C72.936 113.705 73.0691 113.673 72.6854 113.744C72.9203 115.177 73.03 117.103 73.1239 119.483C72.2313 119.961 71.3543 120.595 70.4851 121.128C69.9761 110.948 70.4538 99.3595 69.9683 93.6278C69.5768 88.9139 68.6763 84.2549 68.7389 79.541C68.8016 72.5564 69.5768 65.6423 69.9057 58.6576C70.0309 55.4315 70.0309 52.1976 69.7725 48.9637C69.2557 42.8247 70.4851 42.1748 76.4988 41.4623C78.887 41.2039 81.4084 41.3996 83.8045 41.3996C83.9924 40.1076 84.1881 38.8156 84.3839 37.5863C83.0919 35.8401 79.3412 34.8065 82.7004 31.7057C82.9588 31.4473 82.3793 30.3511 82.3167 29.6385C82.2462 28.276 82.3167 26.9214 82.3167 24.9168C83.9297 26.0131 84.9007 26.663 86.1301 27.5008C86.9679 23.8832 88.6514 23.6875 90.5229 26.2715C92.0733 25.692 93.4984 25.2379 94.9861 24.6584C95.3072 22.5286 90.5855 20.1325 95.0488 17.3528C95.3072 15.6066 92.1437 12.8268 96.2155 11.4096C95.2445 7.3378 99.6373 7.00893 101.188 4.74597C102.55 2.74142 105.776 2.09933 108.627 0.611572C108.752 2.29509 108.814 3.71237 108.948 5.45853C111.853 6.49213 113.411 8.30093 111.211 10.4386C111.986 13.4768 112.565 15.7397 113.152 18.0653C113.411 18.128 113.599 18.128 113.857 18.1984C113.857 16.5776 114.374 14.7061 113.732 13.3436C112.503 10.5639 113.215 9.53029 116.183 9.6634C116.707 7.40045 116.512 4.42493 120.325 5.52117C120.779 5.65429 121.813 4.22917 122.392 3.39133C124.593 -0.0305127 127.114 -0.22627 129.502 2.93717C133.511 1.19101 134.091 1.32413 134.67 3.13293C138.296 4.29965 141.263 5.26277 144.239 6.23373C145.531 6.62525 146.823 7.00893 148.123 7.20469C149.281 7.3378 150.448 7.26733 151.999 7.26733C151.607 8.30093 151.544 9.20925 151.028 9.78869C149.477 11.4096 147.089 12.5684 149.023 15.4813C149.156 15.6066 148.052 16.7733 147.41 17.2275C146.697 17.7443 145.789 17.9322 144.826 18.3237C147.927 21.9413 147.927 21.9413 144.239 25.692C145.405 27.5635 146.893 29.7012 143.142 30.3432C144.113 33.906 141.201 36.8111 137.066 36.9442C134.936 37.0068 132.799 37.461 130.598 37.782C130.669 38.0404 130.731 38.3615 130.731 38.6199C130.857 38.753 131.115 38.9409 131.186 38.9409C135.712 36.1612 139.713 38.6825 143.792 40.1703C144.239 40.366 144.889 41.4623 144.826 41.5327C142.821 43.5999 144.693 45.8629 144.826 47.8675C144.881 49.3865 146.925 52.1898 148.303 53.6384L148.264 54.4136ZM89.27 129.193L89.2778 129.804C88.3774 130.172 87.1637 130.274 86.1301 130.14V130.117V129.976V129.921V129.788V129.733V129.608V129.545V129.42V129.35V129.232V129.193H89.27ZM89.6067 142.912V142.92V142.912ZM89.7633 147.649C89.7946 148.683 89.826 149.716 89.8651 150.75C89.0742 149.787 88.2912 148.839 87.5082 147.892C87.2576 147.571 87.0384 147.195 86.8818 146.811C86.5059 145.801 86.0204 144.861 85.441 144C85.3314 143.013 85.2374 142.019 85.1748 141.025C86.2475 142.199 87.2028 143.522 88.0406 144.987C88.5653 145.903 89.1526 146.788 89.7633 147.649ZM90.0452 156.168C90.0687 156.81 90.0922 157.46 90.1078 158.11C89.3796 158.69 88.6358 159.269 87.884 159.856C87.8136 159.348 87.7353 158.839 87.657 158.33C88.4713 157.633 89.2465 156.889 90.0452 156.168ZM90.3349 164.296L90.3506 164.821C89.5206 165.126 88.6827 165.432 87.8214 165.768C87.4142 163.568 87.5395 163.341 89.5441 163.372C89.1369 163.756 88.761 164.108 88.2286 164.617C89.0429 164.429 89.6694 164.296 90.2958 164.171C90.3036 164.21 90.3193 164.249 90.3349 164.296ZM90.5542 170.686C90.562 171.077 90.5777 171.469 90.5855 171.852C90.5855 172.197 90.4915 172.589 90.241 173.575C89.6224 172.745 89.0038 171.892 88.3539 171.054C87.8605 169.676 87.3672 168.36 86.8739 167.092C88.0798 168.282 89.3092 169.48 90.5542 170.686ZM84.8537 162.182C84.6423 161.689 84.4309 161.203 84.2195 160.718C84.9398 160.358 85.6211 159.927 86.2632 159.449C86.4433 159.841 86.6155 160.248 86.7956 160.694C86.1535 161.18 85.5036 161.681 84.8537 162.182ZM71.2838 129.866C71.135 128.872 71.0019 127.831 70.8923 126.742C71.3778 126.617 71.8789 126.358 72.3957 125.904C72.8185 126.178 73.1474 126.492 73.398 126.828C73.5311 129.342 73.7503 131.613 74.1575 133.077C74.6352 134.729 75.1911 136.209 75.7941 137.611C75.3556 137.806 74.9562 137.986 74.6508 138.127C74.4942 136.976 74.7135 135.731 74.181 135.128C73.2727 134.04 72.4583 133.053 72.2704 131.581C72.2078 131.104 71.8632 130.626 71.55 130.211C71.4639 130.093 71.3699 129.976 71.2838 129.866ZM75.9741 138.018C76.0994 138.284 76.2169 138.55 76.3422 138.816C75.935 139.028 75.5278 139.231 75.1206 139.435C75.0267 139.247 74.9014 139.083 74.8074 138.926L75.9741 138.018ZM76.6084 139.396C76.718 139.623 76.8277 139.85 76.9373 140.069C76.6319 140.234 76.3265 140.39 76.029 140.555C75.935 140.359 75.841 140.202 75.7471 140.007C76.0368 139.811 76.3265 139.599 76.6084 139.396ZM111.986 39.3324C114.57 35.7148 116.895 31.6431 116.191 27.2424C115.157 20.8451 118.454 16.2565 121.359 11.3391C117.608 17.6112 117.349 24.4627 117.483 32.2852C118.383 30.0222 118.97 28.4718 119.612 26.7256C120.067 27.5713 120.388 28.1508 120.709 28.7302C121.1 27.4382 120.646 26.4672 120.583 25.4963C120.45 24.4627 120.646 23.4291 120.709 22.3955C120.967 22.3955 121.163 22.3955 121.421 22.3955C121.554 23.5622 121.75 24.7211 121.875 25.9504C122.784 25.2379 123.488 24.2043 123.23 23.6248C122.134 21.2366 122.196 19.0989 124.138 17.2275C124.397 17.5485 124.718 18.0027 125.047 18.3864C126.597 14.7688 128.014 11.4722 129.439 8.17565C129.698 8.30093 129.956 8.3714 130.277 8.49669C128.727 12.6389 127.239 16.7733 125.563 21.1661C130.41 17.157 134.866 13.4768 139.329 9.78869C139.525 10.0471 139.783 10.3055 139.971 10.5012C138.037 12.1848 136.095 13.8604 134.161 15.544C131.311 18.0027 128.273 20.2656 125.751 23.0454C123.88 25.05 123.167 28.3465 121.1 29.9596C116.057 33.9687 113.599 39.4655 110.819 44.8919C109.981 45.4087 109.073 45.8003 108.368 46.4423C107.397 47.3507 106.622 48.4469 105.651 49.3552C102.934 51.7435 100.091 54.0064 98.0243 55.7526C99.512 59.3075 100.804 62.5414 102.292 66.0259C103.842 63.8334 105.259 64.9297 106.685 66.5427C107.201 67.13 108.298 67.2553 109.01 67.7094C109.848 68.2262 110.561 68.8762 111.336 69.5182C111.853 69.9724 112.244 70.4892 112.761 70.9434C113.536 71.6559 114.374 72.3606 115.22 73.0106C115.799 73.4647 116.379 73.9189 116.77 74.1773C117.349 72.2354 117.866 70.6223 118.579 68.3594C117.028 64.1545 117.287 63.4419 120.779 63.5046C120.388 61.6958 119.871 59.8243 119.612 57.9529C119.55 57.3656 120.004 56.1363 120.325 56.0736C121.038 55.9483 122.001 56.2694 122.525 56.7235C123.747 57.8198 124.851 59.1118 126.01 60.4664C127.756 57.0446 129.956 56.5278 135.062 57.624C137.387 56.011 139.133 54.719 140.88 53.4896C138.162 52.5813 135.899 51.4851 133.511 51.0935C131.115 50.6472 128.602 50.8351 126.143 50.7099C126.01 51.0935 125.947 51.4224 125.822 51.8061C127.239 52.9728 128.664 54.0691 130.082 55.2358C128.985 55.4942 127.819 55.4942 127.239 54.9147C123.943 51.6182 120.388 48.8384 115.478 48.9637C119.158 47.9927 122.784 47.0218 126.527 46.0587C125.689 45.3461 124.914 44.6962 124.076 44.0541C124.138 43.9836 124.264 43.8583 124.334 43.7957C125.172 44.1167 126.08 44.3751 127.043 44.7588C126.855 43.9836 126.722 43.4668 126.339 41.9791C127.826 43.4042 128.664 44.1794 129.565 44.9546C129.377 45.213 129.181 45.4087 128.985 45.6671C130.082 45.6671 131.186 45.6671 132.219 45.6671C132.219 45.8003 132.219 45.9255 132.219 46.0587C129.306 46.8339 126.401 47.5386 123.488 48.3138C126.401 50.6472 129.306 49.2221 132.157 49.0968C134.678 48.9637 137.129 49.0968 139.65 49.0968C139.65 49.3552 139.65 49.6136 139.588 49.872C138.938 49.9973 138.233 50.1304 137.583 50.2557C137.583 50.4515 137.52 50.7099 137.52 50.9056C139.971 51.6808 142.493 52.456 144.951 53.2312C141.529 50.1304 141.529 46.2466 141.459 42.7543C138.358 39.3951 134.866 39.3324 131.115 41.3996C131.053 41.4623 130.857 41.4623 130.794 41.3996C129.823 40.8828 128.21 40.4991 128.077 39.8492C127.889 38.8156 128.469 36.8737 129.181 36.5527C131.311 35.7148 133.77 35.5191 136.095 34.9396C137.583 34.5481 139.196 34.3524 140.363 33.4519C140.942 32.9977 140.488 31.2516 140.488 30.4137C138.679 30.6721 137.325 30.7974 136.033 30.9932C136.095 29.9596 136.158 29.1844 136.291 28.0176C137.974 28.1508 140.167 28.3465 142.43 28.5344C142.563 28.2134 142.751 27.8924 142.884 27.5008C142.109 26.984 141.396 26.2715 140.496 25.9504C139.525 25.5668 138.358 25.4963 137.325 25.3084C140.042 24.1416 143.401 25.4963 145.014 21.9413C144.239 21.2288 143.464 20.524 142.367 19.5531C143.597 17.9322 144.693 16.5149 145.86 15.0272C145.664 14.9645 145.468 14.894 145.21 14.7688C146.048 12.8973 146.831 11.018 147.668 9.07613C144.434 10.5639 142.109 5.71693 138.554 7.46309C138.491 7.52573 138.162 6.94629 137.904 6.821C137.066 6.49213 136.033 5.91269 135.32 6.17109C133.057 6.88365 132.415 6.03797 132.861 2.93717C130.215 5.71693 128.147 5.97533 126.268 3.19557C126.143 2.99981 123.622 3.58709 123.426 4.29965C122.455 6.94629 120.904 8.3714 118.258 7.8546C116.449 11.5975 114.444 14.9645 114.507 19.0989C114.507 19.8741 113.599 20.6493 113.152 21.4245C112.761 21.495 112.44 21.495 112.048 21.5576C110.889 18.3864 109.723 15.2229 108.689 12.0516C108.556 11.7306 109.01 11.2764 109.143 10.8928C109.402 10.1176 109.66 9.33453 109.919 8.55933C109.527 8.6298 109.206 8.69245 108.814 8.75509C108.039 7.00893 107.201 5.20013 106.426 3.39133C103.709 5.65429 100.867 8.113 97.7032 10.7596C97.2491 13.9936 96.7323 17.7443 96.2781 21.1035C96.5992 23.7501 96.8576 26.2088 97.2491 29.3096C95.1819 28.2134 94.0778 27.1798 92.9189 27.1172C91.2354 27.0467 89.5519 27.634 87.3594 28.0176C87.2263 29.8969 85.4175 29.6385 83.6087 28.7302C83.8045 30.7348 83.9924 32.4809 84.1881 34.6812C87.1637 36.49 87.1637 36.49 86.1927 38.6199C87.7431 41.4623 89.0351 43.7957 90.3271 46.1839C89.9434 47.0923 89.5519 47.9927 89.0351 49.1595C91.7522 48.9011 93.9525 48.7053 95.5656 48.5095C97.5075 47.5386 98.9952 46.7007 100.546 45.9882C101.383 45.534 102.354 45.2756 103.067 44.6962C103.325 44.5004 103.13 43.2084 102.871 43.0831C102.033 42.6916 101 42.629 100.029 42.4959C99.512 42.4332 99.0579 42.4959 98.5411 42.4959C98.3453 42.2375 98.1496 42.0495 97.9616 41.7911C98.6664 41.5954 99.3789 41.3996 100.546 41.0786C90.8517 37.9073 90.7186 37.782 91.4312 35.7775C93.0442 36.8111 94.7904 37.9073 96.9202 39.2698C96.5365 36.49 96.2155 34.4855 95.8866 32.4809C96.2781 32.3478 96.7323 32.2852 97.116 32.1599C97.3117 36.1612 98.408 39.6535 102.417 41.1412C103.78 41.658 105.393 42.2375 106.685 41.8538C107.914 41.5327 108.814 40.1076 109.66 39.3324C109.785 39.8492 110.044 40.8202 110.435 42.3706C111.077 40.9455 111.406 40.1076 111.79 39.2698L111.986 39.3324ZM84.7754 129.788L84.7598 129.193H85.3705L85.441 130.015C85.1982 129.953 84.9712 129.874 84.7754 129.788ZM88.9725 73.0732C89.2935 73.1358 89.685 73.269 90.0061 73.3316C91.6896 68.1636 93.3731 62.9878 95.1114 57.8198C95.4403 56.7235 95.6282 55.4315 96.4034 54.719C98.5411 52.5813 100.929 50.7099 103.325 48.6427C100.608 47.9301 98.22 47.4133 97.116 50.8351C96.9907 51.164 95.824 51.2893 95.1819 51.2267C93.3026 51.0309 91.4938 50.7725 88.9725 50.3888C88.9725 58.595 88.9725 65.838 88.9725 73.0732ZM84.4465 75.7277C82.5125 73.6605 81.5415 74.561 80.9542 76.2445C80.6958 77.145 80.5705 78.1159 80.6332 79.0242C80.8289 81.4751 80.8289 84.067 81.4789 86.3926C81.7999 87.4888 83.5461 88.1387 84.6423 88.9766C84.9007 88.6555 85.1591 88.3345 85.4801 88.0056C84.3213 87.1678 83.1545 86.3299 81.6668 85.1632C86.6469 84.388 89.0351 81.5456 90.4602 77.4034C91.0397 75.665 92.7858 74.3026 93.4357 72.5564C95.0488 68.2262 96.3408 63.7003 97.8285 59.3075C97.5701 59.1744 97.2491 59.0491 96.9907 58.916C96.5992 59.1744 95.9571 59.3702 95.8866 59.7617C94.9235 62.7998 94.4067 65.9633 93.0442 68.8057C90.9144 73.2063 88.3304 77.3407 85.7385 81.4751C85.2217 82.3208 83.734 82.5166 82.3167 83.2213C82.0583 79.9952 79.4743 77.0823 84.4465 75.7277ZM87.4847 44.8919C82.7709 42.1748 74.5569 42.4959 71.5813 45.4714C77.7908 48.3843 84.3213 48.2511 87.4847 44.8919Z" fill="#6A5D47"/>
<path fill-rule="evenodd" clip-rule="evenodd" d="M102.035 22.1997C102.873 18.7153 103.71 15.2229 104.556 11.7306C105.527 16.6402 102.035 21.3619 104.681 26.7883C105.331 24.0085 105.848 21.7534 106.365 19.42C106.686 19.4905 107.007 19.4905 107.336 19.5531C106.944 21.6203 106.749 23.6875 106.169 25.6294C105.457 27.8924 105.848 29.8969 106.686 32.0268C107.461 34.0313 107.398 36.3569 107.72 38.5572C107.461 38.6199 107.203 38.6825 106.882 38.753C106.686 38.0404 106.49 37.2652 106.232 36.5527C105.394 34.0313 104.681 31.51 103.648 29.0513C102.16 25.6294 100.414 22.3329 98.8634 18.9737C98.605 18.3864 98.8008 17.6112 98.9339 16.8986C98.9339 16.7733 99.897 16.6402 100.093 16.836C100.672 17.4154 101.322 18.0653 101.447 18.8405C101.714 19.9368 101.518 21.0409 101.518 22.1997C101.643 22.1997 101.839 22.1997 102.035 22.1997Z" fill="#6A5D47"/>
<path fill-rule="evenodd" clip-rule="evenodd" d="M110.82 44.7588C110.757 46.8965 111.016 49.0968 110.632 51.164C109.919 55.2358 110.632 58.916 112.636 62.6041C113.733 64.6086 114.312 66.9342 114.445 69.3225C112.957 66.0964 111.407 62.9251 109.598 59.0491C108.173 60.8579 107.077 62.3457 105.456 64.4129C107.398 57.4283 109.081 51.0935 110.82 44.7588Z" fill="#6A5D47"/>
<path fill-rule="evenodd" clip-rule="evenodd" d="M112.049 39.1993C109.982 37.5863 110.115 35.5817 111.149 33.3814C112.182 31.1263 113.083 28.7928 114.116 26.3419C115.22 28.9886 114.187 31.1263 112.895 33.4519C111.986 35.0649 112.245 37.2652 111.986 39.1993C111.986 39.3324 112.049 39.1993 112.049 39.1993Z" fill="#6A5D47"/>
<path fill-rule="evenodd" clip-rule="evenodd" d="M139.908 20.1325C136.095 21.0408 132.282 22.0118 127.63 23.1707C131.506 19.6783 135.837 19.9367 139.587 18.7152C139.65 19.1615 139.783 19.6157 139.908 20.1325Z" fill="#6A5D47"/>
<path fill-rule="evenodd" clip-rule="evenodd" d="M123.229 32.8646C127.113 32.3478 130.989 31.831 135.257 31.2516C131.639 34.7439 127.239 33.0604 123.229 32.8646Z" fill="#6A5D47"/>
<path fill-rule="evenodd" clip-rule="evenodd" d="M77.8544 100.996C77.8544 105.718 77.8544 110.439 77.8544 115.153C77.7291 115.153 77.596 115.153 77.4707 115.153C77.4707 110.369 77.4707 105.655 77.4707 100.871C77.596 100.933 77.7291 100.996 77.8544 100.996Z" fill="#6A5D47"/>
<path fill-rule="evenodd" clip-rule="evenodd" d="M82.2534 116.837C82.2534 110.635 82.2534 104.943 82.2534 98.8036C82.4413 98.8036 82.6371 98.8036 82.8329 98.8036C82.8329 105.005 82.8329 110.698 82.8329 116.899C82.5745 116.837 82.4413 116.837 82.2534 116.837Z" fill="#6A5D47"/>
<path fill-rule="evenodd" clip-rule="evenodd" d="M73.0714 70.7476C73.3298 74.882 73.5255 78.9538 73.7839 83.3544C72.2962 81.804 71.9125 75.9156 73.0714 70.7476Z" fill="#6A5D47"/>
<path fill-rule="evenodd" clip-rule="evenodd" d="M75.4023 114.315C75.4023 109.789 75.4023 105.334 75.4023 100.808C75.5903 100.808 75.7234 100.808 75.9191 100.808C75.9191 105.264 75.9191 109.727 75.9191 114.19C75.7234 114.253 75.5276 114.315 75.4023 114.315Z" fill="#6A5D47"/>
<path fill-rule="evenodd" clip-rule="evenodd" d="M75.9196 44.6961C78.6289 43.7252 81.2834 43.0204 83.8674 45.8002C81.2207 45.8002 78.5036 45.8002 75.8491 45.8002C75.8491 45.4713 75.8491 45.0876 75.9196 44.6961Z" fill="#6A5D47"/>
<path fill-rule="evenodd" clip-rule="evenodd" d="M30.1911 178.179C26.5265 178.375 22.9637 178.657 19.3618 178.727C14.6401 178.821 9.94193 178.821 5.22026 178.696C4.12401 178.657 3.02777 178.085 2.002 177.639C0.65519 177.067 0.40462 175.885 1.18765 174.765C2.03332 173.552 3.09041 172.44 4.2493 171.508C5.43951 170.584 6.84896 169.981 8.3837 169.12C5.97197 167.045 7.47538 165.385 8.79088 163.756C10.2865 161.939 11.7899 160.084 13.4499 158.392C14.3895 157.437 15.5797 156.67 16.77 156.098C18.2655 155.362 19.3618 154.407 20.0195 152.841C21.1784 149.998 22.8698 147.641 25.1171 145.535C26.5892 144.188 27.3095 141.988 28.3431 140.171C28.625 139.662 28.6877 138.863 29.0949 138.636C32.0939 136.976 32.4071 133.179 35.1947 131.104C38.1389 128.903 39.979 125.2 42.8292 122.843C45.4915 120.603 48.7411 118.974 51.9672 117.573C53.2827 117.001 55.1228 117.792 56.7202 117.761C59.5704 117.729 61.387 118.528 61.8803 121.848C62.2249 124.048 63.4151 124.182 65.357 122.968C68.0193 121.277 70.6111 119.523 73.3361 117.988C77.6506 115.529 82.1921 115.498 86.9138 116.805C88.4799 117.22 90.4531 117.126 91.98 116.586C97.8684 114.48 102.152 118.693 104.375 123.218C105.879 126.288 108.22 128.52 110.82 130.532C112.292 131.683 113.819 132.826 114.978 134.267C115.698 135.16 116.418 135.543 117.358 135.958C119.331 136.851 121.234 137.971 123.082 139.145C123.583 139.466 124.084 140.265 124.053 140.837C124.022 143.139 125.588 144.157 127.122 145.276C128.743 146.459 130.403 147.673 131.875 149.074C132.533 149.716 132.784 150.797 133.285 151.627C134.318 153.193 135.289 154.822 136.503 156.223C138.539 158.557 140.7 160.788 141.859 163.756C141.984 164.046 142.047 164.429 142.266 164.586C144.795 166.403 145.171 169.535 146.581 172.025C146.8 172.408 147.364 172.855 147.771 172.855C148.992 172.855 149.963 173.074 150.308 174.413C150.582 175.564 149.713 177.451 148.554 177.866C147.176 178.344 145.735 178.853 144.326 178.853C143.386 178.853 142.485 177.96 141.421 177.42C140.387 179.526 138.445 181.116 136.002 181.946C135.039 182.267 133.911 182.173 132.878 182.11C131.5 182.008 130.121 181.695 128.712 181.593C127.06 181.499 125.4 181.437 123.74 181.562C120.678 181.758 118.11 180.317 115.416 179.205C115.072 179.072 114.664 178.884 114.508 178.594C113.787 177.13 112.824 177.482 111.571 177.796C110.444 178.085 109.191 177.866 107.656 177.866C104.657 180.575 101.588 181.499 94.9555 181.593C93.4521 185.587 87.0391 187.051 83.6251 184.279C80.031 186.064 76.9302 188.876 72.5217 188.171C71.6134 188.046 70.6424 188.711 69.6715 188.782C67.7374 188.876 66.0461 189.572 64.2294 190.246C61.4732 191.303 58.4428 191.781 55.4986 192.133C52.8128 192.446 51.654 191.201 51.466 188.461C49.8686 187.662 48.1773 187.693 46.5173 188.265C43.9881 189.157 41.639 189.353 39.2899 187.537C38.546 186.926 37.3245 186.895 36.3222 186.707C34.349 186.292 32.8142 185.462 32.4384 183.159C32.3444 182.65 31.9059 182.173 31.5301 181.789C30.5356 180.732 29.7839 179.526 30.1911 178.179ZM52.437 157.656C49.4928 159.418 47.6135 162.253 45.3975 165.001C45.8047 164.938 45.9613 164.907 46.1179 164.938C46.5878 165.032 47.0497 165.189 47.5509 165.322C47.2063 165.674 46.901 166.246 46.4938 166.371C45.4289 166.755 44.27 166.88 43.2051 167.201C41.9209 167.585 40.5114 167.812 39.423 168.509C35.9464 170.748 34.1924 174.444 32.0704 177.827C31.35 178.978 31.7258 179.871 32.6576 180.732C33.1901 181.218 33.8478 181.82 33.9105 182.463C34.1924 184.632 35.6018 185.109 37.3558 185.493C38.64 185.775 39.8224 186.479 41.0439 186.957C41.4824 187.122 41.9209 187.341 42.3594 187.372C45.1157 187.568 47.6135 187.051 49.5868 184.851C49.8686 184.53 50.2445 184.342 50.589 184.083C50.7143 184.217 50.8396 184.342 50.9962 184.436C50.589 184.984 50.1505 185.556 49.5868 186.292C50.6204 185.845 51.4034 185.524 52.1864 185.203C52.2491 185.328 52.3117 185.462 52.4057 185.587C52.0925 185.971 51.7479 186.354 51.2155 187.02C52.6249 187.02 53.7212 187.02 54.8096 187.02C56.8455 187.02 58.8187 186.957 60.5414 188.523C61.7002 189.541 63.2585 189.541 64.48 188.742C67.111 187.051 70.1413 186.895 72.9602 186.863C76.2176 186.832 78.7781 185.556 81.3152 183.895C82.1295 183.355 82.9125 182.776 83.6956 182.204C84.7527 181.437 85.7549 180.513 86.8825 179.871C87.7282 179.424 88.7618 179.393 89.7327 179.174C89.075 176.175 89.1376 175.979 90.9856 174.515C89.7954 172.98 88.6365 171.257 87.2897 169.723C84.4708 166.497 81.7536 163.114 77.4313 161.712C76.6248 161.454 75.8731 160.694 75.2467 160.021C72.741 157.272 70.3606 154.438 67.8627 151.689C67.5495 151.337 66.9544 151.087 66.4846 151.055C63.6343 150.765 60.7606 150.993 58.3489 152.613C56.219 154.054 54.3789 155.965 52.4057 157.687L52.437 157.656ZM23.4335 152.778C22.1807 153.349 20.8965 153.827 20.2075 155.299C19.8942 155.933 19.1425 156.544 18.4535 156.826C14.1703 158.619 11.7272 162.386 9.01012 165.894C8.16445 166.982 8.8222 168.125 10.1925 168.321C11.3201 168.446 12.4476 168.705 13.5752 168.799C14.3895 168.861 15.3292 168.987 16.0496 168.673C17.7331 168 19.3305 167.742 21.0531 168.352C22.2433 168.767 23.4335 169.503 24.5924 169.472C26.4012 169.433 28.2492 168.861 30.0658 168.611C30.6296 168.54 31.2247 168.767 31.7885 168.861C31.3813 169.245 31.0368 169.785 30.5356 169.981C29.7526 170.232 28.9069 170.263 28.0926 170.365C27.5288 170.427 26.871 170.263 26.4012 170.521C24.9918 171.32 23.7468 170.968 22.3999 170.396C20.7712 169.723 19.0486 168.955 17.2633 169.817C15.5484 170.647 13.951 171.672 12.2597 172.565C11.9778 172.722 11.5393 172.628 11.1948 172.628C11.2261 172.244 11.1321 171.766 11.3201 171.508C11.6333 171.062 12.1657 170.78 12.6982 170.302C9.35466 169.339 3.15306 172.823 2.24474 175.979C3.84212 177.318 5.7214 177.42 7.66331 177.349C11.2887 177.255 14.922 176.3 18.5474 177.318C18.7354 177.381 18.9859 177.255 19.3931 177.161C18.4535 176.488 17.6704 175.979 17.0127 175.376C16.8326 175.212 16.77 174.609 16.9187 174.413C17.044 174.225 17.6391 174.131 17.8584 174.256C18.9859 174.93 20.0195 175.721 21.1471 176.394C21.6796 176.715 22.306 177.036 22.9011 177.099C23.9973 177.193 25.1171 177.287 26.182 177.067C28.625 176.621 31.1621 176.394 32.689 173.81C33.8478 171.829 35.4766 170.106 36.8234 168.227C37.0426 167.906 36.9486 167.295 36.9173 166.818C36.886 166.309 36.7294 165.8 36.6354 165.291C36.792 165.259 36.9486 165.22 37.1053 165.158C37.4498 165.831 37.8256 166.504 38.1702 167.139C38.2641 167.107 38.3581 167.076 38.4521 167.045C38.2328 166.277 38.0136 165.51 37.7943 164.743C37.9509 164.68 38.1075 164.617 38.2328 164.555C38.64 165.158 39.0159 165.768 39.6344 166.724C41.0439 165.894 42.7979 165.322 43.8628 164.14C46.9871 160.593 50.3385 157.28 53.8464 154.117C57.19 151.118 60.8232 149.364 65.263 149.395C66.8604 149.395 68.1133 149.967 69.2643 151.149C71.8013 153.796 74.5889 156.161 76.617 159.316C77.8698 161.266 81.2212 161.869 83.1631 161.141C87.0704 159.7 89.4822 156.255 92.7317 153.96C90.9543 151.823 89.2942 149.81 87.6342 147.798C87.3836 147.477 87.1644 147.093 87.0078 146.709C86.0055 144.125 84.3768 142.05 82.2235 140.359C81.3778 139.725 80.7514 139.529 79.9057 140.171C79.5925 140.39 79.154 140.422 78.7781 140.523C78.7155 140.359 78.6215 140.202 78.5589 140.038C79.1227 139.623 79.6551 139.247 80.2189 138.832C80.1563 138.699 80.0623 138.542 79.9997 138.417C78.7155 139.083 77.4313 139.787 76.1471 140.453C76.0532 140.265 75.9671 140.108 75.8731 139.913C76.7423 139.278 77.5879 138.636 78.4649 138.033C78.4023 137.932 78.371 137.869 78.3083 137.775C77.2747 138.284 76.2411 138.832 75.2467 139.341C75.1527 139.177 75.0274 139.02 74.9335 138.832C75.5912 138.315 76.2411 137.806 76.8989 137.297C76.8675 137.235 76.8362 137.203 76.7736 137.141C76.0219 137.485 75.278 137.806 74.7768 138.033C74.6202 136.882 74.8082 135.637 74.307 135.027C73.3987 133.946 72.5844 132.959 72.3964 131.487C72.3338 131.01 71.9893 130.532 71.676 130.117C70.6424 128.708 69.2643 127.979 67.5808 127.431C64.4174 126.445 61.1678 125.2 60.3221 121.433C59.9463 119.679 59.1319 119.295 57.6598 119.264C55.7492 119.202 53.6585 118.465 51.9672 119.037C49.3362 119.898 46.6426 121.245 44.6145 123.093C40.8246 126.539 37.5124 130.501 34.0358 134.236C33.7226 134.549 33.472 135.027 33.4094 135.481C33.1588 137.008 32.3444 138.002 31.0368 138.793C29.596 139.693 29.502 140.743 30.4103 142.246C30.6922 142.692 30.8488 143.201 31.0681 143.679C30.9428 143.773 30.7862 143.875 30.6609 143.937C30.1911 143.389 29.7526 142.818 29.2828 142.309C27.5288 143.46 30.1285 144.446 29.2828 145.817C28.8756 145.245 28.5311 144.736 28.1239 144.157C26.4639 147.258 22.9011 148.503 22.212 152.269C22.5879 151.979 22.7758 151.815 22.995 151.721C23.2456 151.595 23.4962 151.533 23.7781 151.439C23.8407 151.689 23.9034 151.783 23.872 151.885C23.7781 152.167 23.6215 152.457 23.5275 152.747L23.4335 152.778ZM145.766 173.238C144.075 170.842 144.044 167.742 141.608 165.925C141.17 165.604 141.013 164.97 140.669 164.492C139.071 162.159 137.599 159.7 135.759 157.594C134.131 155.714 132.408 153.992 131.844 151.439C131.75 151.024 131.437 150.538 131.092 150.257C129.558 148.98 128.031 147.735 126.465 146.553C124.679 145.245 122.8 144.094 122.769 141.416C122.769 140.868 122.017 140.234 121.453 139.85C120.396 139.114 119.175 138.636 118.078 137.9C115.949 136.53 113.388 136.976 111.571 138.793C109.817 140.586 107.907 142.246 105.879 143.679C104 144.987 101.932 146.012 99.8651 147.03C97.8997 148.017 97.0227 149.873 95.9265 151.595C94.9869 153.06 94.1099 154.72 92.8257 155.84C89.8267 158.455 86.5693 160.82 83.2257 163.435C86.2874 166.465 89.6074 169.723 92.951 172.949C93.2016 173.199 93.8906 173.105 94.3291 173.011C96.7095 172.502 99.0821 171.798 101.463 171.477C104.407 171.093 106.591 172.628 108.157 175.055C108.721 175.948 109.191 177.036 110.319 176.684C111.697 176.269 113.419 176.519 114.101 174.515C115.353 170.811 117.984 168.705 121.86 167.969C124.335 167.491 126.653 166.371 129.057 165.541C129.15 165.51 129.182 165.385 129.244 165.322C130.936 163.85 133.034 163.498 135.102 163.498C135.822 163.498 136.566 164.429 137.224 165.001C137.317 165.064 137.098 165.706 136.879 165.894C136.754 166.019 136.284 165.925 136.065 165.768C134.632 164.743 132.533 164.876 130.998 166.215C133.254 166.88 135.509 167.554 137.819 168.258C138.194 168.063 138.758 167.781 139.291 167.46C139.385 167.585 139.479 167.71 139.573 167.843C139.197 168.29 138.79 168.736 138.414 169.182C138.476 169.276 138.539 169.37 138.602 169.472C139.228 169.214 139.855 168.955 140.481 168.705C140.544 168.799 140.606 168.893 140.669 168.987C140.356 169.402 140.011 169.848 139.447 170.615C140.575 170.615 141.421 170.615 142.485 170.615C142.016 171.163 141.702 171.508 141.389 171.829C141.765 172.753 142.11 173.614 142.485 174.515C143.425 174.162 144.388 173.779 145.766 173.238ZM65.1377 124.597C65.2004 124.785 65.263 124.98 65.3257 125.2C67.7061 125.552 69.7968 128.167 72.4278 125.842C74.0251 126.891 74.2757 128.394 74.1504 129.992C74.5576 129.827 75.0587 129.639 75.5599 129.444C75.6225 129.577 75.6852 129.702 75.7478 129.827C75.1214 130.407 74.1504 130.916 74.0251 131.581C73.8999 132.255 74.6516 133.085 75.0587 133.977C76.0297 133.273 76.6796 132.764 77.3374 132.255C77.4626 132.38 77.5879 132.513 77.7132 132.638C77.2121 133.273 76.6796 133.946 76.1863 134.58C76.2489 134.682 76.3429 134.745 76.4055 134.839C77.1494 134.33 77.8698 133.821 78.6215 133.273C78.7468 133.406 78.8408 133.531 78.9661 133.656C78.4336 134.267 77.9325 134.901 77.3687 135.543C77.5566 135.669 77.7132 135.825 77.9011 135.896C78.4023 136.146 78.9347 136.373 79.4672 136.624C83.1318 138.511 85.9742 141.252 88.0727 144.924C89.4508 147.32 91.2048 149.458 92.8257 151.689C93.0763 152.042 93.5148 152.238 93.9846 152.582C94.2665 151.917 94.4231 151.306 94.7363 150.859C95.9578 149.231 96.9914 147.351 98.5262 146.138C100.46 144.603 102.872 143.648 105.033 142.403C105.566 142.082 105.973 141.573 106.435 141.189C108.909 139.145 111.352 137.102 113.944 134.933C113.357 134.298 112.605 133.022 111.509 132.505C109.097 131.362 107.5 129.381 105.691 127.533C104.532 126.351 103.749 125.043 103.029 123.508C101.838 120.956 99.9904 118.849 97.2733 117.729C95.0182 116.805 93.0449 117.894 90.7037 118.403C91.1735 118.622 91.4554 118.693 91.6042 118.849C92.0113 119.233 92.3246 119.648 92.7004 120.063C92.1366 120.125 91.5415 120.353 91.0795 120.188C89.764 119.742 88.4172 119.233 87.1957 118.559C83.3197 116.484 79.2793 116.868 75.5599 118.465C71.8953 120.125 68.5831 122.553 65.1377 124.597ZM133.88 180.928C137.349 180.732 140.136 177.897 140.732 175.501C141.045 174.162 140.418 173.105 139.541 172.213C137.505 170.106 135.164 168.54 132.189 168.125C131.719 168.063 131.249 167.969 130.842 167.742C128.9 166.724 127.154 167.366 125.337 168.227C124.147 168.799 122.831 169.245 121.547 169.503C118.58 170.106 115.698 172.855 115.26 175.854C115.166 176.425 115.447 177.451 115.855 177.639C117.891 178.532 119.958 179.558 122.08 179.871C124.805 180.286 127.655 180.098 130.435 180.129C130.873 180.129 131.437 180.035 131.688 179.745C132.627 178.626 133.692 178.25 135.258 178.821C134.788 179.487 134.381 180.129 133.88 180.928ZM94.6737 179.902C99.0508 180.45 102.778 179.651 106.192 177.318C106.223 177.287 106.255 177.255 106.317 177.224C107.061 176.519 107.186 175.854 106.411 175.055C105.033 173.653 103.498 172.784 101.431 172.917C98.1503 173.137 95.1121 174.162 92.1993 175.595C91.6042 175.885 90.9229 176.684 90.9229 177.287C90.9229 177.897 91.518 178.915 92.074 179.072C92.7631 179.299 93.734 179.041 94.4544 178.696C95.4254 178.211 96.271 177.42 97.1793 176.778C97.3046 176.966 97.4299 177.13 97.5865 177.318C96.6782 178.117 95.8012 178.915 94.6737 179.902ZM87.5089 184.436C87.5402 184.53 87.5716 184.632 87.6342 184.694C89.3882 183.958 91.1735 183.222 92.8883 182.423C93.1076 182.329 93.3582 181.758 93.2642 181.531C93.1389 181.218 92.7004 180.803 92.4185 180.834C90.4218 181.022 88.4172 181.218 86.444 181.633C85.9115 181.758 85.5044 182.588 85.0659 183.097C85.6296 183.512 86.1621 183.958 86.7572 184.342C86.9451 184.498 87.2584 184.404 87.5089 184.436ZM144.827 177.764C146.174 177.067 147.614 176.551 148.773 175.595C149.462 175.024 149.024 174.1 147.959 174.319C146.643 174.609 145.359 175.024 144.106 175.501C143.762 175.627 143.394 176.363 143.449 176.715C143.519 177.099 144.169 177.318 144.827 177.764ZM59.6644 190.183C57.9417 188.108 54.8096 187.952 53.0321 189.737C55.1228 191.781 57.3153 190.277 59.6644 190.183Z" fill="#6A5D47" stroke="#6A5D47"/>
<path fill-rule="evenodd" clip-rule="evenodd" d="M114.039 188.711C110.758 188.555 107.751 188.555 104.752 188.234C103.374 188.108 102.058 187.505 100.743 186.989C99.2706 186.448 98.8947 184.882 100.116 183.864C100.931 183.191 102.027 182.651 103.029 182.588C106.287 182.298 109.567 182.048 112.825 182.236C114.508 182.329 116.168 183.449 117.86 184.083C118.423 184.311 119.05 184.569 119.645 184.498C122.018 184.342 124.398 183.927 126.34 186.033C127.467 187.247 127.53 188.296 126.027 189.032C124.743 189.674 123.333 190.183 121.924 190.442C120.397 190.724 118.831 190.692 117.265 190.724C115.699 190.755 114.289 190.442 114.039 188.711ZM100.931 185.235C104.72 187.952 114.508 187.92 116.857 185.235C113.639 182.878 103.217 182.838 100.931 185.235ZM115.699 188.711C117.453 189.894 123.239 189.197 125.557 187.537C123.302 184.726 117.734 185.399 115.699 188.711Z" fill="#6A5D47" stroke="#6A5D47" stroke-width="0.25"/>
<path fill-rule="evenodd" clip-rule="evenodd" d="M16.4563 183.253C17.764 182.971 19.0482 182.713 20.3636 182.423C23.4018 181.758 26.4321 181.468 29.439 182.494C31.6628 183.253 32.3127 185.297 33.0644 187.184C33.4716 188.202 32.2814 189.572 31.1303 189.862C30.9737 189.893 30.8171 189.925 30.6605 189.893C26.7453 188.938 23.0886 190.919 19.2987 190.982C17.4195 191.013 15.5167 190.089 13.6374 189.572C13.3555 189.478 13.105 189.259 12.7917 189.126C11.4763 188.617 10.38 187.983 10.5679 186.292C10.7559 184.757 12.2593 183.324 13.888 183.128C14.7023 183.034 15.548 183.003 16.3937 182.971C16.425 183.065 16.4563 183.159 16.4563 183.253ZM24.2475 183.449C24.7095 183.895 25.1793 184.342 25.6491 184.788C25.0227 184.913 24.4041 185.203 23.809 185.172C20.8961 184.984 18.0146 184.632 15.1095 184.498C14.3265 184.467 13.3555 184.882 12.7291 185.399C12.3532 185.712 12.1653 186.894 12.4472 187.216C12.917 187.787 13.794 188.233 14.5457 187.247C14.8589 186.832 15.2974 186.542 15.7046 186.19C15.8299 186.323 15.9552 186.417 16.0805 186.542C15.6733 187.184 15.2661 187.787 14.8589 188.429C14.9529 188.523 15.0156 188.617 15.1095 188.711C15.7359 188.367 16.3624 187.983 17.2942 187.403C17.0201 188.233 16.8635 188.68 16.5816 189.478C17.764 189.478 18.8289 189.572 19.8938 189.447C23.3705 189.095 26.6827 187.247 30.2846 188.398C30.5665 188.492 31.0677 188.296 31.2556 188.046C31.4748 187.787 31.6628 187.216 31.5375 186.957C30.6918 185.234 29.7835 183.512 27.5597 183.386C26.3695 183.386 25.1793 183.449 24.2475 183.449Z" fill="#6A5D47"/>
<path fill-rule="evenodd" clip-rule="evenodd" d="M43.8463 195.672C42.8127 195.516 41.7556 195.445 40.8159 195.101C40.3148 194.905 39.845 194.169 39.7197 193.629C39.6571 193.308 40.2835 192.548 40.6593 192.478C42.3194 192.227 44.0342 191.969 45.6942 192.164C46.352 192.258 47.2916 193.472 47.3542 194.239C47.4795 195.484 46.1954 195.484 45.2557 195.516C44.7859 195.547 44.3161 195.516 43.8463 195.516C43.8776 195.578 43.8463 195.61 43.8463 195.672ZM41.6616 193.566C41.6616 193.691 41.6616 193.824 41.6616 193.95C43.0006 193.95 44.3474 193.95 45.6629 193.95C45.6629 193.824 45.6629 193.691 45.6629 193.566C44.3474 193.566 43.0006 193.566 41.6616 193.566Z" fill="#6A5D47"/>
<path fill-rule="evenodd" clip-rule="evenodd" d="M65.8354 192.853C64.6452 194.036 63.3924 195.179 61.889 195.978C61.7637 195.821 61.6384 195.696 61.5444 195.531C62.8599 194.482 64.1441 193.425 65.4596 192.376C65.5849 192.532 65.7102 192.689 65.8354 192.853Z" fill="#6A5D47" stroke="#6A5D47" stroke-width="0.25"/>
<path fill-rule="evenodd" clip-rule="evenodd" d="M65.5996 195.758C66.8211 194.607 68.0113 193.456 69.2329 192.344C69.3895 192.501 69.5461 192.689 69.7027 192.853C68.4812 194.004 67.291 195.148 66.0694 196.299C65.9128 196.111 65.7562 195.946 65.5996 195.758Z" fill="#6A5D47" stroke="#6A5D47" stroke-width="0.25"/>
<path fill-rule="evenodd" clip-rule="evenodd" d="M95.1735 189.909C94.6097 190.23 94.0773 190.583 93.5135 190.896C93.3882 190.77 93.2942 190.614 93.1689 190.481C94.2652 189.463 95.3301 188.445 96.4264 187.388C96.583 187.544 96.7709 187.677 96.9275 187.834C96.3637 188.445 95.7999 189.079 95.2675 189.69C95.2048 189.784 95.2048 189.846 95.1735 189.909Z" fill="#6A5D47" stroke="#6A5D47" stroke-width="0.25"/>
<path fill-rule="evenodd" clip-rule="evenodd" d="M146.643 181.366C145.578 182.196 144.482 183.065 143.425 183.888C143.299 183.7 143.143 183.543 143.018 183.347C144.075 182.486 145.108 181.625 146.173 180.763C146.298 180.99 146.486 181.178 146.643 181.366Z" fill="#6A5D47" stroke="#6A5D47" stroke-width="0.25"/>
<path fill-rule="evenodd" clip-rule="evenodd" d="M133.097 186.832C133.912 185.877 134.726 184.913 135.572 183.927C135.759 184.083 135.947 184.248 136.127 184.404C135.29 185.36 134.475 186.323 133.63 187.278C133.473 187.153 133.285 186.988 133.097 186.832Z" fill="#6A5D47" stroke="#6A5D47" stroke-width="0.25"/>
<path fill-rule="evenodd" clip-rule="evenodd" d="M140.388 183.379C141.328 182.517 142.267 181.687 143.176 180.826C143.332 180.99 143.481 181.178 143.638 181.335C142.706 182.196 141.798 183.026 140.858 183.888C140.733 183.731 140.545 183.543 140.388 183.379Z" fill="#6A5D47" stroke="#6A5D47" stroke-width="0.25"/>
<path fill-rule="evenodd" clip-rule="evenodd" d="M35.6348 188.75C36.731 188.14 37.8586 187.505 38.947 186.895C39.0723 187.122 39.1662 187.31 39.2915 187.537C38.2031 188.171 37.0755 188.782 35.9793 189.416C35.854 189.165 35.7601 188.97 35.6348 188.75Z" fill="#6A5D47"/>
<path fill-rule="evenodd" clip-rule="evenodd" d="M133.974 184.788C133.222 185.743 132.501 186.707 131.75 187.662C131.562 187.537 131.374 187.372 131.217 187.247C131.969 186.292 132.689 185.36 133.441 184.404C133.629 184.53 133.786 184.663 133.974 184.788Z" fill="#6A5D47" stroke="#6A5D47" stroke-width="0.25"/>
<path fill-rule="evenodd" clip-rule="evenodd" d="M104.291 187.043C104.322 186.981 104.353 186.918 104.384 186.855C105.261 186.378 106.17 185.9 107.047 185.454C107.015 186.534 105.449 187.912 104.447 187.623C104.322 187.591 104.322 187.239 104.291 187.043Z" fill="#6A5D47" stroke="#6A5D47" stroke-width="0.25"/>
<path fill-rule="evenodd" clip-rule="evenodd" d="M71.9963 192.626C70.8688 193.456 69.7725 194.286 68.6528 195.116C68.5275 194.921 68.3709 194.764 68.2456 194.568C69.3418 193.738 70.4303 192.908 71.5265 192.078C71.7144 192.243 71.871 192.431 71.9963 192.626Z" fill="#6A5D47" stroke="#6A5D47" stroke-width="0.25"/>
<path fill-rule="evenodd" clip-rule="evenodd" d="M91.6992 188.492C92.5136 187.693 93.3279 186.926 94.1423 186.127C94.2362 186.221 94.2989 186.292 94.3928 186.386C93.6098 187.184 92.8268 188.014 92.0124 188.813C91.9185 188.68 91.8245 188.586 91.6992 188.492Z" fill="#6A5D47" stroke="#6A5D47" stroke-width="0.25"/>
<path fill-rule="evenodd" clip-rule="evenodd" d="M83.9152 188.265C82.9756 189.063 82.0046 189.893 81.065 190.692C80.9084 190.536 80.7831 190.34 80.6265 190.183C81.5661 189.385 82.5371 188.554 83.4767 187.756C83.6333 187.92 83.7899 188.108 83.9152 188.265Z" fill="#6A5D47" stroke="#6A5D47" stroke-width="0.25"/>
<path fill-rule="evenodd" clip-rule="evenodd" d="M86.1612 188.68C85.3155 189.478 84.5012 190.277 83.6633 191.076C83.5693 190.951 83.4441 190.857 83.3501 190.723C84.1331 189.862 84.877 189.001 85.66 188.171C85.8166 188.335 85.9732 188.492 86.1612 188.68Z" fill="#6A5D47" stroke="#6A5D47" stroke-width="0.25"/>
<path fill-rule="evenodd" clip-rule="evenodd" d="M5.07812 183.598C5.98644 182.956 6.92608 182.322 7.83439 181.68C7.95968 181.836 8.05364 182.001 8.17893 182.189C7.30193 182.862 6.42494 183.567 5.51662 184.232C5.36002 184.013 5.23473 183.786 5.07812 183.598Z" fill="#6A5D47" stroke="#6A5D47" stroke-width="0.2"/>
<path fill-rule="evenodd" clip-rule="evenodd" d="M26.8704 164.97C26.2753 166.63 25.3357 166.951 23.8088 166.536C23.0884 166.34 22.2427 166.63 21.4597 166.661C21.2091 166.661 20.8333 166.724 20.708 166.598C19.2985 164.97 17.4506 165.831 15.7984 165.635C15.3912 165.604 14.9214 165.635 14.5768 165.447C14.1384 165.22 13.5746 164.876 13.5119 164.461C13.4493 164.077 13.7625 163.31 14.1384 163.153C15.1093 162.668 16.1742 162.448 17.2078 162.127C17.2626 162.354 17.3566 162.542 17.4192 162.769C16.3935 163.184 15.3599 163.599 14.3576 164.014C14.3889 164.234 14.4516 164.429 14.4829 164.649C15.861 164.649 17.2078 164.586 18.5468 164.68C19.2359 164.743 19.9876 165.001 20.5514 165.416C21.3031 165.956 21.9295 166.215 22.9005 165.862C24.0907 165.385 25.3983 165.259 26.8704 164.97Z" fill="#6A5D47" stroke="#6A5D47" stroke-width="0.2"/>
<path fill-rule="evenodd" clip-rule="evenodd" d="M65.3245 136.436C65.669 136.757 66.0136 137.039 66.3268 137.329C66.2328 137.485 66.1702 137.65 66.0762 137.806C65.5124 137.485 64.8547 137.297 64.4788 136.82C64.3222 136.624 64.6668 135.7 65.0113 135.442C66.2641 134.549 69.2631 134.713 70.3594 135.637C70.7039 135.958 71.1111 136.53 71.0484 136.914C70.9858 137.266 70.3281 137.618 69.8896 137.712C69.2005 137.838 68.4566 137.744 67.7362 137.744C67.7362 137.517 67.7362 137.329 67.7362 137.102C68.4566 136.976 69.1692 136.882 69.8896 136.757C69.0204 135.575 67.2664 135.41 65.3245 136.436Z" fill="#6A5D47"/>
<path fill-rule="evenodd" clip-rule="evenodd" d="M41.882 148.542C40.9893 149.27 40.0967 149.998 39.1727 150.734C39.251 150.836 39.3058 150.985 39.3841 151.094C40.1202 151.079 40.8641 151.102 41.6706 151.094C40.9345 152.136 39.4389 152.441 38.7577 151.721C37.8494 150.773 38.5541 150.014 39.2197 149.481C39.9322 148.894 40.7858 148.495 41.5844 148.041C41.6706 148.182 41.7645 148.346 41.882 148.542Z" fill="#6A5D47" stroke="#6A5D47" stroke-width="0.5"/>
<path fill-rule="evenodd" clip-rule="evenodd" d="M51.0427 140.602C51.7004 140.281 52.3269 139.968 53.1647 139.553C52.922 140.476 52.734 141.111 52.4521 142.137C51.8884 142.356 50.9174 142.739 49.9464 143.123C49.8525 143.029 49.7585 142.904 49.6646 142.802C50.0404 142.168 50.3849 141.526 50.7608 140.892C50.8548 140.798 50.9487 140.696 51.0427 140.602Z" fill="#6A5D47" stroke="#6A5D47" stroke-width="0.5"/>
<path fill-rule="evenodd" clip-rule="evenodd" d="M52.2958 137.391C52.2018 137.485 52.1079 137.579 52.0139 137.681C51.3562 137.994 50.6984 138.284 50.0407 138.605C49.9467 138.472 49.8528 138.315 49.7588 138.19C50.1973 137.806 50.6358 137.391 51.1056 136.976C50.7297 135.825 51.3562 135.121 53.2041 134.776C52.8909 135.669 52.609 136.53 52.2958 137.391Z" fill="#6A5D47" stroke="#6A5D47" stroke-width="0.5"/>
<path fill-rule="evenodd" clip-rule="evenodd" d="M57.1292 126.703C56.033 128.332 54.9054 128.073 53.817 127.784C53.5351 127.721 53.3472 127.306 53.1279 127.055C53.4411 126.828 53.723 126.382 54.0362 126.382C54.9367 126.382 55.8764 126.539 57.1292 126.703Z" fill="#6A5D47"/>
<path fill-rule="evenodd" clip-rule="evenodd" d="M80.9551 150.953C79.483 151.689 78.0501 152.426 76.578 153.162C76.4527 152.903 76.3274 152.645 76.2021 152.394C77.6742 151.658 79.1072 150.922 80.5793 150.194C80.7046 150.444 80.8299 150.703 80.9551 150.953Z" fill="#6A5D47"/>
<path fill-rule="evenodd" clip-rule="evenodd" d="M56.7498 122.232C55.2777 122.044 53.8135 121.879 52.3101 121.692C52.3414 121.464 52.3727 121.214 52.404 120.987C53.9074 120.987 55.403 121.049 56.8438 121.527C56.8125 121.786 56.7812 122.013 56.7498 122.232Z" fill="#6A5D47"/>
<path fill-rule="evenodd" clip-rule="evenodd" d="M45.2729 129.827C45.3356 129.256 45.179 128.488 45.4922 128.105C46.3379 127.016 47.5516 127.275 49.0863 127.369C48.0527 128.778 45.4609 127.4 45.9933 130.336C45.7428 130.148 45.4922 129.992 45.2729 129.827Z" fill="#6A5D47"/>
<path fill-rule="evenodd" clip-rule="evenodd" d="M80.25 143.264C80.4692 143.076 80.5945 142.912 80.7825 142.786C81.127 142.559 81.4715 142.371 81.8474 142.144C82.2859 142.528 82.6931 142.88 83.1316 143.295C82.1919 144.352 81.2836 144.634 80.25 143.264Z" fill="#6A5D47"/>
<path fill-rule="evenodd" clip-rule="evenodd" d="M38.9684 139.615C38.0288 140.351 37.0891 141.111 36.1573 141.847C36.0007 141.659 35.8441 141.463 35.6875 141.244C36.6193 140.508 37.5589 139.74 38.4986 139.004C38.6552 139.231 38.8118 139.419 38.9684 139.615Z" fill="#6A5D47" stroke="#6A5D47" stroke-width="0.5"/>
<path fill-rule="evenodd" clip-rule="evenodd" d="M80.0781 154.477C81.0178 153.968 81.9887 153.483 82.9284 152.974C83.0223 153.169 83.1163 153.357 83.2416 153.553C82.4899 154.446 81.4876 154.829 80.36 155.049C80.2661 154.861 80.1721 154.665 80.0781 154.477Z" fill="#6A5D47"/>
<path fill-rule="evenodd" clip-rule="evenodd" d="M39.4385 136.311C38.5616 136.945 37.7159 137.587 36.8389 138.221C36.6823 138.033 36.557 137.806 36.4004 137.618C37.2461 136.976 38.1231 136.311 38.9687 135.669C39.1253 135.864 39.2819 136.084 39.4385 136.311Z" fill="#6A5D47" stroke="#6A5D47" stroke-width="0.5"/>
<path fill-rule="evenodd" clip-rule="evenodd" d="M51.1377 144.666C51.9834 144.063 52.829 143.483 53.706 142.88C53.8626 143.076 53.9879 143.264 54.1445 143.452C53.3302 144.094 52.4845 144.697 51.6702 145.339C51.4822 145.112 51.3256 144.893 51.1377 144.666Z" fill="#6A5D47" stroke="#6A5D47" stroke-width="0.5"/>
<path fill-rule="evenodd" clip-rule="evenodd" d="M28.4375 154.273C27.5292 154.688 26.6522 155.135 25.7439 155.55C25.6499 155.331 25.5559 155.103 25.4307 154.884C26.339 154.469 27.2473 154.054 28.1243 153.639C28.2496 153.827 28.3435 154.054 28.4375 154.273Z" fill="#6A5D47" stroke="#6A5D47" stroke-width="0.2"/>
<path fill-rule="evenodd" clip-rule="evenodd" d="M10.6299 174.64C11.6322 174.64 12.6344 174.64 13.668 174.64C13.668 174.797 13.668 174.93 13.668 175.086C12.6658 175.086 11.6635 175.086 10.6299 175.086C10.6299 174.93 10.6299 174.765 10.6299 174.64Z" fill="#6A5D47" stroke="#6A5D47" stroke-width="0.2"/>
<path fill-rule="evenodd" clip-rule="evenodd" d="M57.1812 143.154C56.2415 143.663 55.3019 144.18 54.3309 144.721C54.2056 144.493 54.0804 144.274 53.9551 144.047C54.8947 143.507 55.8657 142.967 56.8053 142.418C56.9619 142.645 57.0872 142.904 57.1812 143.154Z" fill="#6A5D47" stroke="#6A5D47" stroke-width="0.5"/>
<path fill-rule="evenodd" clip-rule="evenodd" d="M30.2529 161.516C31.1926 161.36 32.1322 161.164 33.0405 161.007C33.0718 161.235 33.1345 161.485 33.1658 161.712C32.2262 161.9 31.3179 162.127 30.3782 162.315C30.3469 162.065 30.2843 161.775 30.2529 161.516Z" fill="#6A5D47"/>
<path fill-rule="evenodd" clip-rule="evenodd" d="M26.9038 173.998C26.1521 174.444 25.4004 174.891 24.6878 175.345C24.5625 175.149 24.4685 174.961 24.3433 174.734C25.0558 174.256 25.7762 173.779 26.5279 173.301C26.6219 173.552 26.7472 173.779 26.9038 173.998Z" fill="#6A5D47" stroke="#6A5D47" stroke-width="0.2"/>
<path fill-rule="evenodd" clip-rule="evenodd" d="M59.9467 166.089C60.4478 166.277 60.9803 166.465 61.4814 166.661C61.4501 166.786 61.4188 166.951 61.3875 167.076C60.761 167.139 60.1346 167.17 59.5395 167.233C59.5395 167.327 59.5395 167.428 59.5082 167.522C60.3226 167.585 61.1369 167.648 61.9434 167.71C61.9434 167.875 61.9747 168.031 61.9747 168.157C61.0116 168.767 59.8841 168.673 58.8818 168.196C58.5059 168 58.4433 167.107 58.224 166.465C57.2531 166.215 55.9063 165.956 54.6534 165.447C53.565 165.001 53.5337 164.14 54.5281 163.466C56.1255 162.417 57.8795 162.284 59.6335 162.895C61.1995 163.466 61.2622 164.743 59.9467 166.089ZM54.9666 164.523C56.2195 165.768 57.7542 165.385 59.2263 165.189C59.5082 165.158 59.9154 164.774 59.9467 164.523C59.978 164.265 59.6335 163.881 59.3516 163.725C58.2554 163.114 56.0002 163.529 54.9666 164.523Z" fill="#6A5D47"/>
<path fill-rule="evenodd" clip-rule="evenodd" d="M54.0346 176.237C53.5334 176.104 52.9383 176.104 52.5625 175.822C52.1553 175.533 51.7481 174.961 51.7168 174.515C51.7168 174.194 52.2806 173.747 52.6878 173.489C53.0323 173.301 53.5021 173.332 53.9093 173.301C55.0603 173.238 56.2192 173.489 56.0939 174.828C56.0626 175.439 54.9351 175.948 54.3478 176.488C54.2538 176.425 54.1285 176.331 54.0346 176.237Z" fill="#6A5D47"/>
<path fill-rule="evenodd" clip-rule="evenodd" d="M76.7428 181.977C76.1868 184.467 70.0792 186.096 67.8945 184.342C69.5467 184.217 71.0815 184.279 72.4909 183.896C73.963 183.512 75.2785 182.682 76.7428 181.977Z" fill="#6A5D47" stroke="#6A5D47" stroke-width="0.25"/>
<path fill-rule="evenodd" clip-rule="evenodd" d="M75.9749 165.62C75.1919 166.003 74.5028 166.324 73.8138 166.645C73.7198 166.551 73.6572 166.481 73.5632 166.387C73.7198 166.066 73.8451 165.721 73.9077 165.62C73.3753 165.111 72.8428 164.633 72.1851 164.022C72.8741 163.678 73.4066 163.388 74.0017 163.098C74.6281 163.928 75.2232 164.696 75.9749 165.62Z" fill="#6A5D47"/>
<path fill-rule="evenodd" clip-rule="evenodd" d="M54.0894 155.683C55.0368 155.879 55.9843 156.074 57.1197 156.286C57.1275 156.693 57.151 157.233 57.1745 157.93C55.9686 157.813 54.6923 157.695 53.4395 157.594C53.737 156.779 53.9563 156.223 54.1755 155.667C54.1598 155.699 54.0894 155.683 54.0894 155.683Z" fill="#6A5D47"/>
<path fill-rule="evenodd" clip-rule="evenodd" d="M67.7375 179.871C66.9545 179.871 66.2027 179.871 65.4197 179.871C65.4197 180.035 65.3884 180.192 65.3884 180.317C66.2654 180.419 67.1737 180.544 68.1133 180.669C67.2363 181.593 65.2318 181.758 64.6993 180.896C64.4801 180.544 64.7306 179.33 64.9812 179.268C65.8582 179.009 66.8292 179.111 67.7375 179.072C67.7375 179.33 67.7375 179.589 67.7375 179.871Z" fill="#6A5D47"/>
<path fill-rule="evenodd" clip-rule="evenodd" d="M48.0525 173.669C46.8388 174.053 45.6486 174.405 44.3644 174.82C44.7089 175.267 44.9595 175.556 45.1787 175.838C45.1161 175.971 45.0221 176.128 44.9595 176.253C44.3957 176.003 43.8006 175.744 43.2368 175.454C43.6127 174.945 43.8632 174.28 44.3331 173.99C45.4919 173.348 46.7448 172.651 48.0525 173.669Z" fill="#6A5D47"/>
<path fill-rule="evenodd" clip-rule="evenodd" d="M51.2773 178.312C49.9305 179.33 48.5837 180.388 47.2369 181.405C47.0803 181.178 46.9315 180.959 46.7749 180.732C48.1139 179.683 49.4294 178.657 50.7762 177.608C50.9641 177.827 51.1207 178.054 51.2773 178.312Z" fill="#6A5D47"/>
<path fill-rule="evenodd" clip-rule="evenodd" d="M43.4087 180.45C43.7845 178.884 46.3451 177.255 47.9424 177.482C46.2198 178.594 44.8103 179.526 43.4087 180.45Z" fill="#6A5D47"/>
<path fill-rule="evenodd" clip-rule="evenodd" d="M48.7725 181.437C50.088 180.482 51.4034 179.526 52.7189 178.563C52.8755 178.79 53.0321 179.041 53.1888 179.268C51.8733 180.223 50.5578 181.178 49.2423 182.142C49.0857 181.914 48.9291 181.695 48.7725 181.437Z" fill="#6A5D47"/>
<path fill-rule="evenodd" clip-rule="evenodd" d="M64.2075 169.895C63.9882 171.649 61.8349 173.34 60.3628 173.121C61.7409 171.97 62.9938 170.913 64.2075 169.895Z" fill="#6A5D47"/>
<path fill-rule="evenodd" clip-rule="evenodd" d="M81.5493 181.766C82.6456 181.225 83.734 180.716 85.0495 180.074C84.5483 181.546 83.2015 182.243 81.5493 181.766Z" fill="#6A5D47"/>
<path fill-rule="evenodd" clip-rule="evenodd" d="M61.8179 186.542C62.7888 185.971 63.7911 185.399 64.7621 184.788C64.8874 185.015 65.0126 185.234 65.1379 185.43C64.167 186.033 63.1647 186.636 62.1937 187.247C62.0684 187.02 61.9432 186.769 61.8179 186.542Z" fill="#6A5D47" stroke="#6A5D47" stroke-width="0.25"/>
<path fill-rule="evenodd" clip-rule="evenodd" d="M44.5534 170.623C43.5824 171.163 42.6115 171.68 41.6405 172.221C41.5152 171.993 41.3899 171.774 41.2646 171.516C42.2356 170.975 43.1752 170.435 44.1462 169.918C44.2715 170.177 44.3968 170.396 44.5534 170.623Z" fill="#6A5D47"/>
<path fill-rule="evenodd" clip-rule="evenodd" d="M81.2837 170.521C82.3173 169.95 83.2882 169.402 84.2827 168.861C84.3767 170.232 82.6618 171.195 81.2837 170.521Z" fill="#6A5D47"/>
<path fill-rule="evenodd" clip-rule="evenodd" d="M39.6577 171.445C40.5347 171.062 41.4039 170.647 42.2809 170.263C42.3748 170.49 42.5001 170.717 42.5941 170.968C41.7171 171.383 40.8401 171.798 39.9709 172.213C39.8456 171.954 39.7517 171.704 39.6577 171.445Z" fill="#6A5D47"/>
<path fill-rule="evenodd" clip-rule="evenodd" d="M59.0708 172.753C59.8538 172.181 60.6682 171.578 61.4512 170.999C61.5765 171.195 61.7331 171.383 61.8584 171.578C61.0754 172.181 60.2923 172.784 59.5093 173.426C59.384 173.168 59.2274 172.949 59.0708 172.753Z" fill="#6A5D47"/>
<path fill-rule="evenodd" clip-rule="evenodd" d="M34.8416 179.409C34.0898 179.855 33.3381 180.333 32.5316 180.842C32.469 179.597 33.1815 179.056 34.8416 179.409Z" fill="#6A5D47"/>
<path fill-rule="evenodd" clip-rule="evenodd" d="M35.8916 180.857C36.7686 180.442 37.6143 180.027 38.4913 179.612C38.5852 179.839 38.7105 180.059 38.8045 180.254C37.9275 180.701 37.0818 181.116 36.2048 181.562C36.1109 181.335 36.0169 181.084 35.8916 180.857Z" fill="#6A5D47"/>
<path fill-rule="evenodd" clip-rule="evenodd" d="M111.415 150.891C112.417 151.212 113.388 151.627 114.414 151.854C115.479 152.105 116.543 152.167 117.702 152.332C115.948 153.287 112.135 152.747 110.945 151.439C110.287 150.703 110.256 149.81 111.195 149.521C113.263 148.847 115.291 149.293 117.264 149.998C117.264 150.194 117.233 150.351 117.233 150.538C115.322 150.382 113.419 150.257 111.509 150.092C111.509 150.351 111.477 150.609 111.415 150.891Z" fill="#6A5D47" stroke="#6A5D47"/>
<path fill-rule="evenodd" clip-rule="evenodd" d="M109.379 161.336C108.064 160.984 106.748 160.569 105.433 160.256C104.869 160.123 104.274 160.154 103.741 159.966C102.841 159.614 101.619 159.23 101.995 157.985C102.152 157.445 103.334 157.03 104.117 156.967C105.057 156.873 106.028 157.218 106.999 157.351C106.999 157.539 106.967 157.734 106.967 157.922C105.495 157.922 104.023 157.922 102.59 157.922C102.559 158.15 102.528 158.369 102.496 158.627C103.679 158.878 104.838 159.105 106.028 159.395C107.093 159.645 108.189 159.966 109.223 160.35C109.379 160.412 109.316 161.055 109.348 161.399C109.316 161.399 109.379 161.336 109.379 161.336Z" fill="#6A5D47"/>
<path fill-rule="evenodd" clip-rule="evenodd" d="M96.6154 168.446C95.6132 168.572 94.6109 168.705 93.6086 168.83C93.6086 169.018 93.5773 169.182 93.5773 169.37C94.5482 169.503 95.4879 169.629 96.4902 169.754C95.6445 170.842 93.1701 170.748 92.7629 169.566C92.6376 169.182 93.0448 168.227 93.3894 168.125C94.3916 167.843 95.4879 167.843 96.5528 167.71C96.5528 167.969 96.5841 168.196 96.6154 168.446Z" fill="#6A5D47"/>
<path fill-rule="evenodd" clip-rule="evenodd" d="M119.363 158.87C119.958 158.713 120.647 158.557 121.422 158.361C121.641 159.222 121.892 160.115 122.142 161.141C121.735 161.328 121.21 161.587 120.678 161.837C120.208 161.235 119.864 160.757 119.488 160.248C120.615 159.606 118.767 159.512 119.363 158.87Z" fill="#6A5D47"/>
<path fill-rule="evenodd" clip-rule="evenodd" d="M89.5452 163.372C89.1693 163.725 88.7621 164.108 88.2297 164.617C89.044 164.461 89.6704 164.296 90.2969 164.171C90.3595 164.359 90.4222 164.586 90.4848 164.774C89.6078 165.095 88.7621 165.416 87.8225 165.768C87.4153 163.56 87.5406 163.372 89.5452 163.372Z" fill="#6A5D47"/>
<path fill-rule="evenodd" clip-rule="evenodd" d="M98.9258 153.256C98.1193 155.104 95.5823 156.286 94.3921 155.683C95.8329 154.916 97.1797 154.211 98.9258 153.256Z" fill="#6A5D47"/>
<path fill-rule="evenodd" clip-rule="evenodd" d="M113.849 170.647C113.637 172.338 112.009 173.841 110.38 173.779C111.445 172.823 112.51 171.86 113.849 170.647Z" fill="#6A5D47" stroke="#6A5D47"/>
<path fill-rule="evenodd" clip-rule="evenodd" d="M120.991 166.912C122.362 165.988 123.458 165.259 124.648 164.461C124.554 165.925 122.894 167.107 120.991 166.912Z" fill="#6A5D47"/>
<path fill-rule="evenodd" clip-rule="evenodd" d="M113.883 144.861C115.23 144.125 116.358 143.554 117.611 142.849C117.297 144.384 115.7 145.276 113.883 144.861Z" fill="#6A5D47" stroke="#6A5D47"/>
<path fill-rule="evenodd" clip-rule="evenodd" d="M108.941 161.258C109.936 161.853 110.93 162.417 111.893 163.004C112.027 162.895 112.16 162.777 112.293 162.683C111.471 161.963 110.57 161.297 109.247 160.992C109.176 161.07 109.075 161.164 108.941 161.258Z" fill="#6A5D47"/>
<path fill-rule="evenodd" clip-rule="evenodd" d="M130.09 154.273C128.9 154.657 127.718 155.041 126.527 155.456C126.433 155.205 126.371 154.947 126.277 154.72C127.467 154.344 128.657 153.929 129.84 153.545C129.902 153.765 129.996 154.023 130.09 154.273Z" fill="#6A5D47"/>
<path fill-rule="evenodd" clip-rule="evenodd" d="M120.304 164.97C121.267 164.328 122.206 163.662 123.334 162.926C123.271 164.265 121.925 165.291 120.554 165.353C120.46 165.22 120.398 165.095 120.304 164.97Z" fill="#6A5D47"/>
<path fill-rule="evenodd" clip-rule="evenodd" d="M113.975 169.691C113.168 170.459 112.354 171.195 111.54 171.954C111.383 171.798 111.195 171.61 111.039 171.445C111.822 170.678 112.636 169.887 113.419 169.12C113.607 169.276 113.787 169.503 113.975 169.691Z" fill="#6A5D47" stroke="#6A5D47"/>
<path fill-rule="evenodd" clip-rule="evenodd" d="M125.495 153.412C126.497 152.934 127.468 152.457 128.471 151.979C128.565 152.198 128.69 152.426 128.776 152.653C127.813 153.162 126.811 153.639 125.84 154.148C125.714 153.929 125.62 153.671 125.495 153.412Z" fill="#6A5D47" stroke="#6A5D47"/>
<path fill-rule="evenodd" clip-rule="evenodd" d="M124.587 146.889C125.339 146.631 126.09 146.404 127.061 146.091C127.093 146.373 127.155 147.077 127.155 147.077C126.31 147.203 125.464 147.304 124.587 147.367C124.587 147.203 124.587 147.046 124.587 146.889Z" fill="#6A5D47" stroke="#6A5D47"/>
<path fill-rule="evenodd" clip-rule="evenodd" d="M94.6348 158.698C95.5431 158.157 96.4201 157.648 97.3284 157.108C97.4537 157.327 97.579 157.554 97.7042 157.742C96.7959 158.251 95.8876 158.768 94.9793 159.277C94.8227 159.081 94.7287 158.893 94.6348 158.698Z" fill="#6A5D47"/>
<path fill-rule="evenodd" clip-rule="evenodd" d="M115.447 143.06C114.632 143.569 113.818 144.11 113.043 144.626C112.918 144.431 112.792 144.211 112.667 144.016C113.45 143.475 114.225 142.935 115.04 142.387C115.134 142.614 115.29 142.833 115.447 143.06Z" fill="#6A5D47" stroke="#6A5D47"/>
<path fill-rule="evenodd" clip-rule="evenodd" d="M95.7383 122.459C96.8658 121.942 98.0561 122.294 98.4945 123.414C99.6769 126.351 102.652 127.47 104.406 129.859C104.908 130.532 105.972 130.814 107.092 131.456C106.403 131.871 105.659 132.317 104.908 132.764C104.594 130.532 102.872 129.671 101.775 128.394C100.679 127.149 99.5516 125.936 98.4006 124.785C97.5862 124.017 96.7719 123.352 95.7383 122.459Z" fill="#6A5D47"/>
<path fill-rule="evenodd" clip-rule="evenodd" d="M81.0951 124.495C81.0951 124.182 81.0951 123.861 81.0951 123.446C79.7796 123.634 78.5581 123.829 77.0547 124.049C78.2136 122.835 81.377 122.201 82.348 122.741C82.5672 122.874 82.8491 123.352 82.8178 123.414C82.4419 123.892 81.9721 124.338 81.5336 124.753C81.3457 124.691 81.2204 124.597 81.0951 124.495Z" fill="#6A5D47"/>
<path fill-rule="evenodd" clip-rule="evenodd" d="M88.1182 124.37C90.1854 124.37 92.1586 124.37 94.3119 124.37C92.9651 125.802 88.8072 125.615 88.1182 124.37Z" fill="#6A5D47"/>
<path fill-rule="evenodd" clip-rule="evenodd" d="M100.811 143.397C102.69 143.107 104.068 142.92 105.814 142.661C104.561 143.969 102.345 144.321 100.811 143.397Z" fill="#6A5D47" stroke="#6A5D47"/>
<path fill-rule="evenodd" clip-rule="evenodd" d="M97.1787 134.729C98.1183 133.836 99.058 132.967 99.9976 132.075C100.186 132.27 100.342 132.458 100.53 132.654C99.6218 133.547 98.6821 134.439 97.7738 135.332C97.5546 135.144 97.3666 134.917 97.1787 134.729Z" fill="#6A5D47"/>
<path fill-rule="evenodd" clip-rule="evenodd" d="M94.8707 139.615C93.7431 140.187 92.6156 140.766 91.5193 141.369C91.3941 141.15 91.2688 140.891 91.1748 140.664C92.3024 140.061 93.3986 139.49 94.5262 138.879C94.6201 139.137 94.7454 139.388 94.8707 139.615Z" fill="#6A5D47"/>
<path fill-rule="evenodd" clip-rule="evenodd" d="M92.5516 137.673C91.5572 138.214 90.5549 138.762 89.5526 139.302C89.4273 139.075 89.302 138.824 89.1768 138.597C90.179 138.057 91.15 137.517 92.1523 136.969C92.301 137.227 92.4263 137.446 92.5516 137.673Z" fill="#6A5D47"/>
<path fill-rule="evenodd" clip-rule="evenodd" d="M98.2373 137.329C99.4275 136.436 100.305 135.763 101.393 134.94C101.025 136.694 99.96 137.524 98.2373 137.329Z" fill="#6A5D47" stroke="#6A5D47"/>
<path fill-rule="evenodd" clip-rule="evenodd" d="M133.801 172.542C132.956 172.636 132.079 172.73 131.233 172.823C131.233 172.988 131.202 173.145 131.202 173.27C132.423 173.466 133.645 173.685 135.117 173.943C133.833 174.711 131.139 174.648 130.544 173.849C130.293 173.528 130.45 172.408 130.669 172.346C131.64 172.025 132.705 171.899 133.739 171.743C133.739 171.993 133.77 172.283 133.801 172.542Z" fill="#6A5D47"/>
<path fill-rule="evenodd" clip-rule="evenodd" d="M117.765 175.736C119.425 174.554 120.74 173.63 122.236 172.573C121.923 174.17 119.613 175.862 117.765 175.736Z" fill="#6A5D47"/>
<path fill-rule="evenodd" clip-rule="evenodd" d="M117.922 175.094C118.862 174.108 119.802 173.09 120.741 172.095C120.867 172.228 120.992 172.322 121.117 172.448C120.491 173.755 119.332 174.523 118.267 175.415C118.11 175.29 118.016 175.196 117.922 175.094Z" fill="#6A5D47"/>
<path fill-rule="evenodd" clip-rule="evenodd" d="M120.897 179.534C122.173 178.673 123.176 177.999 124.272 177.263C124.272 178.704 122.612 179.879 120.897 179.534Z" fill="#6A5D47"/>
<path fill-rule="evenodd" clip-rule="evenodd" d="M96.1154 176.903C95.3324 177.381 94.5494 177.866 93.7663 178.344C93.6724 178.179 93.5784 178.023 93.4531 177.897C93.8916 176.903 94.8626 176.652 95.7709 176.394C95.8962 176.551 95.9901 176.715 96.1154 176.903Z" fill="#6A5D47"/>
</svg>
