<svg width="324" height="110" viewBox="0 0 324 110" fill="none" xmlns="http://www.w3.org/2000/svg">
<path d="M4.5946 97.472L9.34449 90.9418L21.813 100.109L23.7784 97.4102L9.09881 86.5952L0.417969 98.5432L15.0976 109.358L17.0631 106.66L4.5946 97.472ZM23.8399 83.1756C30.9442 89.4174 35.9193 83.9996 36.9635 82.7842C38.0077 81.5894 42.6757 75.8832 35.5508 69.6414C28.4464 63.3996 23.4713 68.8174 22.4272 70.0328C21.383 71.2276 16.7355 76.9132 23.8399 83.1756ZM26.1739 80.4564C24.0651 78.6024 21.5468 75.2652 24.5155 71.8456C27.4637 68.4466 31.108 70.486 33.2168 72.34C35.3256 74.2146 37.8439 77.5518 34.8957 80.9714C31.927 84.3704 28.3031 82.331 26.1739 80.4564ZM59.6074 56.6016L49.5343 44.8184L40.3212 52.7906L42.8804 55.7982C47.2413 60.907 47.8964 64.6974 47.9988 66.6544L46.8113 67.6638L51.3974 72.8138L53.6086 70.898L50.9265 67.7668L60.9586 59.0942L63.6407 62.2254L65.8519 60.3096L61.491 54.9742L59.6074 56.6016ZM48.8178 49.1032L57.0891 58.7852L50.988 64.0588C50.3328 60.083 48.6949 57.4668 46.0538 54.3768L44.6411 52.7082L48.8178 49.1032ZM65.2581 36.5578L71.8711 31.9434L80.6543 44.736L83.3978 42.8408L73.0586 27.7616L60.9382 36.1664L71.2774 51.2456L74.0209 49.3298L65.2581 36.5578ZM94.7607 31.4284L89.1509 19.2744L86.1413 20.6958L93.7984 37.2994L96.7467 35.9192L98.9988 20.119L104.588 32.2524L107.618 30.8516L99.961 14.248L97.0128 15.6076L94.7607 31.4284ZM129.238 17.544C129.627 19.4804 128.89 21.8082 125.983 22.5704C122.81 23.415 119.923 21.6228 118.838 17.4822C117.896 13.8154 118.224 10.2928 122.154 9.24218C125.451 8.37698 126.843 10.2516 127.437 11.673L130.631 10.8284C129.812 8.33578 127.478 4.97798 121.458 6.56418C117.077 7.71778 113.535 11.2198 115.439 18.5122C117.773 27.4732 125.164 25.6604 126.515 25.2896C132.473 23.724 132.862 19.4598 132.432 16.6994L129.238 17.544ZM146.395 16.8436L153.602 15.8342L155.445 19.4598L158.966 18.9654L149.671 1.78498L146.395 2.23818L142.096 21.3344L145.617 20.84L146.395 16.8436ZM146.907 13.9802L148.525 5.53418L152.353 13.218L146.907 13.9802ZM172.827 3.72138L172.295 19.2332L175.611 19.3568L176.164 3.82438L181.876 4.03038L181.958 1.24938L167.217 0.734375L167.115 3.51538L172.827 3.72138ZM197.027 2.97978L193.73 2.50598L191.151 20.634L199.095 21.7876C204.233 22.5292 205.83 19.4804 206.158 17.235C206.916 11.9408 202.657 10.9314 200.712 10.6636L196.024 9.98378L197.027 2.97978ZM195.635 12.7236L199.729 13.321C201.101 13.5064 203.148 14.0008 202.78 16.5758C202.432 19.0684 200.589 19.192 198.849 18.9448L194.836 18.368L195.635 12.7236ZM229.273 22.797C228.618 24.651 226.775 26.2578 223.888 25.372C220.756 24.445 219.22 21.3962 220.449 17.2968C221.534 13.6712 223.643 10.8284 227.533 12.0026C230.788 12.9914 231.013 15.3192 230.788 16.8436L233.941 17.7912C234.535 15.2368 234.289 11.1374 228.311 9.34518C223.991 8.04738 219.138 9.18038 216.989 16.3904C214.347 25.269 221.616 27.5968 222.946 27.9882C228.843 29.7804 231.402 26.3402 232.426 23.7446L229.273 22.797ZM253.227 31.14L250.709 37.4848L253.8 38.7208L260.557 21.7258L253.596 18.9036C251.2 17.956 246.778 16.411 244.751 21.5198C243.215 25.372 245.754 27.5144 247.249 28.3384L239.817 33.0764L243.727 34.6626L250.299 29.9452L253.227 31.14ZM256.462 23.0442L254.271 28.565L250.443 27.02C249.091 26.4844 246.921 25.3514 247.904 22.8794C249.03 20.0572 251.589 21.0872 252.429 21.4168L256.462 23.0442ZM291.779 49.783L298.597 54.1914L294.174 61.0924L296.979 62.9052L306.827 47.517L304.043 45.7042L300.091 51.8636L293.274 47.4552L297.225 41.2958L294.441 39.483L284.572 54.8712L287.357 56.684L291.779 49.783ZM311.065 67.8904L316.941 72.1752L315.774 76.0686L318.661 78.1698L323.779 59.3002L321.097 57.3432L304.862 68.117L307.748 70.2182L311.065 67.8904ZM313.379 66.16L320.36 61.1954L317.842 69.4148L313.379 66.16Z" fill="#882B28"/>
</svg>
