<svg width="390" height="165" viewBox="0 0 390 165" fill="none" xmlns="http://www.w3.org/2000/svg">
<path d="M16.4008 26.8745L5.62451 41.6833L8.31346 43.6633L12.2956 38.1976L15.4566 40.5076C19.7056 43.6426 22.7024 42.6526 24.6524 39.9714C27.7108 35.7639 24.5703 32.8764 22.2714 31.1851L16.4008 26.8745ZM17.4682 31.1026L20.6087 33.4126C21.635 34.1758 23.4824 35.7226 21.7787 38.0533C20.1571 40.2808 18.2892 39.167 17.0577 38.2595L13.9171 35.9495L17.4682 31.1026ZM29.9687 54.6358L35.9419 58.8639L34.8129 62.7826L37.7277 64.8451L42.6335 45.8908L39.924 43.952L23.7698 54.9451L26.6845 57.0076L29.9687 54.6358ZM32.2882 52.8826L39.2261 47.8295L36.804 56.0795L32.2882 52.8826ZM59.4035 72.0845C58.2335 73.652 55.9961 74.6626 53.4919 72.992C50.7414 71.1564 50.1461 67.7945 52.5066 64.2264C54.6003 61.0501 57.4535 58.967 60.8403 61.2358C63.6935 63.1333 63.2214 65.4226 62.5645 66.8045L65.315 68.6401C66.6287 66.3714 67.5729 62.3908 62.3798 58.9051C58.6029 56.3889 53.615 56.0589 49.4687 62.3495C44.3577 70.0839 50.6592 74.4358 51.8293 75.1989C56.9608 78.6433 60.4092 76.0858 62.154 73.9201L59.4035 72.0845ZM81.5308 86.3776C80.4019 87.9864 78.185 89.0176 75.6398 87.3883C72.8687 85.6351 72.2119 82.2939 74.4903 78.6639C76.5224 75.4464 79.3345 73.3014 82.7624 75.4876C85.6361 77.3233 85.2256 79.6539 84.5892 81.0358L87.3808 82.8301C88.6535 80.5201 89.5156 76.5189 84.2403 73.157C80.4224 70.7026 75.4345 70.4758 71.4114 76.8489C66.4645 84.6658 72.8482 88.8939 74.0182 89.657C79.2319 92.9776 82.6187 90.3583 84.3224 88.1514L81.5308 86.3776ZM102.078 84.3151L99.1629 82.6651L90.1929 98.6289L97.1924 102.61C101.729 105.188 104.315 102.919 105.444 100.939C108.051 96.2983 104.459 93.8026 102.735 92.8126L98.6087 90.482L102.078 84.3151ZM97.254 92.8951L100.846 94.937C102.057 95.6176 103.802 96.8345 102.509 99.1033C101.277 101.29 99.5324 100.753 97.9929 99.8664L94.4419 97.8658L97.254 92.8951ZM112.998 90.5233L104.028 106.487L106.922 108.137L115.912 92.1733L112.998 90.5233ZM115.912 112.345C121.701 116.387 124.985 110.571 126.956 106.425L129.296 101.537L134.53 104.053L127.838 118.078L130.856 119.522L138.738 103.001L127.469 97.577L124.369 104.074C122.789 107.436 120.387 112.2 117.103 109.849L115.912 112.345ZM148.508 115.5L151.402 107.766L148.282 106.59L141.858 123.75L144.978 124.926L148.323 116.036L152.223 127.669L156.185 129.175L151.443 116.82L161.973 111.767L158.258 110.365L148.508 115.5ZM173.94 125.276L171.908 114.51L167.947 113.5L171.313 128.329C170.451 130 169.363 130.103 168.234 129.793C167.577 129.628 166.982 129.34 166.469 129.01L165.75 131.835C166.551 132.31 167.146 132.495 167.967 132.701C169.507 133.114 171.498 133.547 173.92 130.309L183.526 117.542L180.139 116.655L173.94 125.276ZM214.849 131.732L222.978 132.165L222.526 140.374L225.851 140.56L226.857 122.265L223.511 122.08L223.121 129.401L215.013 128.948L215.403 121.626L212.078 121.44L211.072 139.755L214.418 139.941L214.849 131.732ZM235.683 130.474C236.607 139.92 243.935 139.405 245.516 139.24C247.096 139.095 254.403 138.146 253.459 128.68C252.515 119.233 245.187 119.749 243.607 119.914C242.026 120.058 234.739 121.007 235.683 130.474ZM239.235 130.103C238.947 127.298 239.399 123.111 243.873 122.678C248.369 122.224 249.621 126.225 249.908 129.051C250.175 131.856 249.744 136.043 245.249 136.476C240.774 136.93 239.501 132.928 239.235 130.103ZM260.048 117.356L264.79 135.073L272.733 132.928C275.381 132.206 279.056 130.701 277.845 126.225C277.003 123.07 274.54 122.636 273.021 122.781L273 122.74C274.642 121.976 275.443 120.1 274.909 118.161C274.396 116.201 272.836 113.912 268.361 115.108L260.048 117.356ZM263.989 119.171L268.177 118.037C268.854 117.851 271.132 117.295 271.748 119.646C272.159 121.193 271.235 122.038 269.449 122.533L265.2 123.668L263.989 119.171ZM265.919 126.349L270.393 125.153C271.728 124.781 273.801 124.39 274.437 126.761C275.012 128.927 273.657 129.793 271.687 130.33L267.294 131.526L265.919 126.349ZM284.844 119.336C288.744 127.999 295.518 125.153 296.975 124.493C298.412 123.833 305.021 120.615 301.121 111.953C297.242 103.27 290.448 106.116 289.011 106.776C287.553 107.436 280.944 110.674 284.844 119.336ZM288.087 117.851C286.938 115.273 286.035 111.169 290.14 109.313C294.245 107.456 296.729 110.839 297.878 113.417C299.028 115.995 299.931 120.1 295.826 121.956C291.72 123.833 289.257 120.43 288.087 117.851ZM321.689 103.373C322.653 105.064 322.695 107.518 320.17 109.168C317.399 110.983 314.115 110.2 311.775 106.59C309.722 103.414 308.942 99.9489 312.349 97.7214C315.202 95.8445 317.132 97.1851 318.117 98.3608L320.909 96.5458C319.349 94.4214 316.085 91.967 310.83 95.3908C307.033 97.8864 304.755 102.341 308.86 108.653C313.889 116.428 320.355 112.365 321.545 111.581C326.718 108.199 325.753 104.033 324.46 101.558L321.689 103.373ZM330.33 86.1095L339.67 98.5258L342.318 96.5045L332.999 84.0883L337.556 80.6233L335.893 78.4164L324.09 87.3676L325.753 89.5745L330.33 86.1095ZM349.995 76.3126L346.895 72.7239L354.716 65.9176L352.909 63.8139L342.564 72.8064L354.49 86.687L365.061 77.5089L363.255 75.4051L355.208 82.397L351.801 78.4164L358.821 72.332L357.015 70.2283L349.995 76.3126ZM371.116 64.5564L361.797 54.9658L359.396 57.2964L372.163 70.4139L374.482 68.1245L371.362 52.4495L380.681 62.0401L383.083 59.6889L370.316 46.5714L367.996 48.8608L371.116 64.5564ZM357.61 52.3464C359.457 53.687 362.002 53.6458 364.322 51.377C366.621 49.1083 366.723 46.5508 365.451 44.6739L363.521 46.5508C364.404 47.6439 364.035 49.0258 363.008 50.0364C361.982 51.0264 360.586 51.377 359.539 50.4695L357.61 52.3464Z" fill="#882B28"/>
</svg>
