<svg width="225" height="191" viewBox="0 0 225 191" fill="none" xmlns="http://www.w3.org/2000/svg">
<path fill-rule="evenodd" clip-rule="evenodd" d="M95.9928 38.0073C95.1768 37.635 94.3083 37.1929 93.3521 36.7842C84.6942 33.0415 70.2905 29.309 59.0922 33.738C51.4743 36.7501 42.9368 45.9561 43.1052 56.5421C42.9417 60.07 46.1855 63.8488 50.6493 69.5558C53.9143 73.7172 56.885 77.3985 60.9776 78.8044C61.9493 79.1338 62.933 79.322 63.9304 79.3261C76.5693 79.55 84.7518 78.9811 89.2656 77.4794C99.2979 74.154 103.065 68.0463 104.439 64.2726C107.112 53.7726 105.505 42.3885 95.9928 38.0073Z" fill="#DED8C2"/>
<path fill-rule="evenodd" clip-rule="evenodd" d="M105.788 19.918C103.545 22.3689 95.6494 20.2956 92.8221 19.4158C87.8607 17.8757 75.5985 13.5784 72.2484 10.5897C69.7177 8.33658 69.4995 6.45564 69.8147 6.72722C75.599 11.7681 88.713 16.3158 95.9586 18.1654C97.147 18.4667 105.884 20.4269 105.267 17.766C104.995 16.5971 103.328 15.0507 102.706 14.6187C99.9392 12.7069 95.0217 10.0971 90.3349 8.31576C81.0096 4.77966 69.9078 3.2642 68.6562 4.94926C64.5304 10.4941 58.0347 19.9134 53.0155 27.7184C50.0879 32.278 47.4743 35.9391 46.7482 38.4709C44.5713 46.0418 47.2701 49.1454 47.4837 49.4928C50.6491 54.58 59.5733 57.687 68.5064 58.633C72.5408 59.0575 80.8066 60.0561 87.0676 59.1927C91.5574 58.5768 95.4264 56.8823 97.2866 54.9205C100.325 51.7079 96.8894 45.1071 95.5644 44.0859C89.3686 39.3175 79.7117 36.0572 69.3543 35.1574C63.3163 34.6383 56.5059 34.1859 51.3989 36.6362C47.9819 38.2692 44.8041 41.5746 42.6402 44.6323C40.5216 47.1869 40.3824 48.3266 38.999 50.6712C37.4302 53.3347 36.3718 57.3615 39.2754 61.625C44.1221 68.5055 50.7101 75.7161 56.4306 82.7617C58.164 85.3823 57.6122 86.5235 57.103 88.4238C56.3682 91.1707 54.9341 94.4493 54.1324 97.1751L34.7686 156.442L33.3609 161.028C32.4119 164.191 29.4769 163.386 24.8694 161.922C23.763 161.575 22.3939 161.174 21.0306 160.786C16.7998 159.596 14.0978 158.666 9.61111 158.758C3.47286 158.882 1.56571 161.236 1.81951 163.9C2.21039 168.023 5.97318 170.561 9.38912 172.099C18.0587 176.009 26.9925 179.184 36.2952 181.173C41.1237 182.203 47.5924 183.928 52.2047 183.927C59.6252 183.918 58.9515 180.233 55.7119 177.55C53.0261 175.328 40.5851 170.438 37.3317 169.59C31.6774 168.126 29.6029 167.062 24.8522 165.937C22.0289 165.26 15.0931 163.516 12.4003 163.559C9.25781 163.608 8.38216 166.036 9.26343 166.768C10.0852 167.448 12.7591 168.463 15.4155 169.305C20.5335 170.932 29.4021 174.794 33.64 171.316C34.4172 170.683 34.9632 169.536 35.5505 167.682C36.9943 163.117 38.9595 157.852 40.8441 152.302C42.5684 147.206 56.2227 107.144 61.5768 91.7913C63.4474 86.4308 63.6649 86.3843 68.0574 85.5858C72.5181 84.7777 80.1589 83.306 84.833 82.6976C88.6901 82.1911 93.7087 81.8924 97.2031 78.5261C97.7801 77.971 99.6241 76.2549 100.14 75.5433C102.321 72.5109 103.045 63.4394 103.732 54.662C104.177 48.9228 104.861 43.0886 105.053 39.9129C105.724 28.8134 105.962 19.7281 105.788 19.918Z" stroke="#2B2A29" stroke-width="1.5"/>
<path fill-rule="evenodd" clip-rule="evenodd" d="M118.93 51.6538C114.474 53.5459 105.923 58.7426 111.961 74.5454C113.178 77.7359 115.411 80.2045 118.722 82.0463C125.567 85.8438 135.035 87.4153 143.538 87.5923C147.678 87.6825 152.338 88.0095 155.876 87.1943C159.5 86.3641 167.396 80.0382 170.036 77.3696C175.645 71.7071 178.975 61.6898 177.789 53.8452C177.203 49.9725 176.126 46.3629 172.983 44.177C168.858 41.3103 162.245 41.3033 156.529 41.641C142.442 42.4783 131.84 45.5833 118.93 51.6538Z" fill="#A52442"/>
<path fill-rule="evenodd" clip-rule="evenodd" d="M154.954 43.9959C146.417 46.299 136.402 50.0932 135.828 50.2851C131.906 51.6202 122.178 55.4693 118.199 61.8083C115.378 66.3046 114.305 72.3444 115.479 77.4975C116.589 82.3955 119.826 86.4757 122.202 88.002C126.762 90.9296 147.032 91.5595 154.629 92.3398C158.437 92.7303 159.317 92.9142 160.54 94.7565C164.129 100.181 167.414 107.004 170.714 113.617L188.721 149.679C189.443 151.125 191.934 154.805 190.568 155.968C189.503 156.872 185.347 159.552 183.794 160.616C180.044 163.183 176.033 165.912 174.201 168.109C169.738 173.456 171.024 177.523 172.314 178.346C173.472 179.083 175.215 179.839 177.235 179.835C183.306 179.832 191.811 175.921 197.451 173.529C204.865 170.392 212.194 166.611 216.254 162.067C219.875 158.022 219.142 147.247 206.008 152.464C199.679 154.981 192.573 158.279 189.701 160.28C187.571 161.762 185.027 163.733 184.506 165.177C182.833 169.782 193.058 166.557 195.288 165.183C198.137 163.428 199.804 160.781 198.182 157.561L165.999 93.7924C164.376 90.5852 164.857 89.2071 165.925 87.4961C166.67 86.3074 168.906 83.8808 169.93 82.5004C173.046 78.2996 175.808 74.4598 178.89 69.5925C182.268 64.2571 185.796 60.5349 184.823 53.783C184.036 48.3687 181.208 44.5023 177.587 40.6342L166.007 28.2736C163.128 25.1934 156.506 17.9136 151.486 13.754C149.682 12.2635 147.328 10.0608 146.486 9.85994C143.968 9.24535 142.037 10.0773 141.838 10.1369C139.911 10.7104 136.784 11.7396 132.965 13.4115C129.486 14.9249 124.926 17.6932 121.261 19.5131C112.863 23.6693 105.499 28.1512 106.159 30.8262C106.328 31.5105 112.258 30.7444 116.134 29.044C119.558 27.5467 124.298 25.6356 128.09 23.5623C131.347 21.775 136.557 18.9225 139.489 16.7955C142.707 14.4707 145.27 12.0391 145.255 12.0939C143.668 18.1926 133.591 23.1973 127.941 26.278C120.975 30.0681 113.545 32.2628 105.908 33.7778L112.407 66.244C113.127 71.0337 115.586 72.1754 117.728 72.0479C124.013 71.672 128.774 70.7285 134.336 69.5038C138.966 68.481 146.088 66.5878 153.491 63.8624C159.362 61.7022 165.356 59.0913 169.877 56.6539C172.271 55.3606 179.054 51.6738 179.651 49.1306C180.264 46.5018 178.559 45.1447 175.006 43.49C169.193 40.7879 162.277 42.0185 154.954 43.9959Z" stroke="#2B2A29" stroke-width="1.5"/>
</svg>
