<svg width="27" height="32" viewBox="0 0 27 32" fill="none" xmlns="http://www.w3.org/2000/svg">
<path d="M13.7004 16.555C13.7308 16.555 13.7612 16.555 13.7977 16.555C13.8099 16.555 13.822 16.555 13.8342 16.555C13.8524 16.555 13.8768 16.555 13.895 16.555C15.6775 16.5245 17.1193 15.8979 18.1839 14.6995C20.5261 12.0592 20.1367 7.53307 20.0942 7.10114C19.9421 3.85861 18.409 2.30731 17.1436 1.58337C16.2007 1.04193 15.0996 0.74992 13.8707 0.725586H13.8281C13.822 0.725586 13.8099 0.725586 13.8038 0.725586H13.7673C13.092 0.725586 11.7658 0.83509 10.4943 1.55903C9.21678 2.28297 7.65939 3.83428 7.50731 7.10114C7.46472 7.53307 7.07537 12.0592 9.41754 14.6995C10.4761 15.8979 11.9179 16.5245 13.7004 16.555ZM9.13161 7.25323C9.13161 7.23498 9.13769 7.21672 9.13769 7.20456C9.33845 2.84266 12.435 2.37423 13.7612 2.37423H13.7855C13.7977 2.37423 13.8159 2.37423 13.8342 2.37423C15.4767 2.41073 18.2691 3.07992 18.4577 7.20456C18.4577 7.22281 18.4577 7.24106 18.4638 7.25323C18.4698 7.29581 18.8957 11.4326 16.9611 13.6105C16.1946 14.4744 15.1726 14.9002 13.8281 14.9124C13.8159 14.9124 13.8099 14.9124 13.7977 14.9124C13.7855 14.9124 13.7794 14.9124 13.7673 14.9124C12.4289 14.9002 11.4008 14.4744 10.6403 13.6105C8.71185 11.4448 9.12553 7.28973 9.13161 7.25323Z" fill="black" stroke="black"/>
<path d="M26.2993 24.8192C26.2993 24.8132 26.2993 24.8071 26.2993 24.801C26.2993 24.7523 26.2932 24.7037 26.2932 24.6489C26.2567 23.4444 26.1776 21.3849 23.5373 20.4845C23.5191 20.4785 23.4947 20.4724 23.4765 20.4663C20.7328 19.7667 18.4515 18.185 18.4272 18.1667C18.0561 17.9051 17.545 17.9964 17.2834 18.3675C17.0219 18.7386 17.1131 19.2496 17.4842 19.5112C17.5876 19.5842 20.0089 21.2693 23.0385 22.048C24.4559 22.553 24.6141 23.3105 24.6567 24.6976C24.6567 24.7523 24.6567 24.801 24.6628 24.8497C24.6689 25.3972 24.6324 26.2428 24.535 26.7295C23.5495 27.2892 19.6864 29.2237 13.8097 29.2237C7.95738 29.2237 4.07 27.2831 3.07838 26.7234C2.98105 26.2367 2.93846 25.3911 2.95063 24.8436C2.95063 24.7949 2.95671 24.7462 2.95671 24.6915C2.9993 23.3044 3.15747 22.5469 4.57493 22.0419C7.60454 21.2632 10.0258 19.572 10.1292 19.5051C10.5003 19.2435 10.5916 18.7325 10.33 18.3614C10.0684 17.9903 9.55735 17.899 9.18626 18.1606C9.16192 18.1789 6.89276 19.7606 4.13692 20.4602C4.11258 20.4663 4.09433 20.4724 4.07608 20.4785C1.43583 21.3849 1.35674 23.4444 1.32024 24.6428C1.32024 24.6976 1.32024 24.7462 1.31416 24.7949C1.31416 24.801 1.31416 24.8071 1.31416 24.8132C1.30807 25.1295 1.30199 26.7538 1.62442 27.569C1.68525 27.7272 1.79476 27.861 1.94076 27.9523C2.12327 28.0739 6.49733 30.8602 13.8158 30.8602C21.1343 30.8602 25.5084 28.0679 25.6909 27.9523C25.8308 27.861 25.9464 27.7272 26.0072 27.569C26.3114 26.7599 26.3053 25.1356 26.2993 24.8192Z" fill="black" stroke="black"/>
</svg>
