<svg width="24" height="30" viewBox="0 0 24 30" fill="none" xmlns="http://www.w3.org/2000/svg">
<path d="M20.4706 11.0156H18.4706V5.74059C18.4706 2.57515 15.8318 0 12.5882 0H11.3529C8.10938 0 5.47059 2.57515 5.47059 5.74059V11.0156H3.52941C1.58318 11.0156 0 12.5926 0 14.5312V18.0469C0 24.6378 5.38327 30 12 30C13.9281 30 15.8454 29.5333 17.5443 28.6503C18.1204 28.3509 18.3435 27.643 18.043 27.0692C17.7424 26.4954 17.0317 26.2729 16.4557 26.5725C15.0719 27.2916 13.5728 27.6562 12 27.6562C6.68061 27.6562 2.35294 23.3455 2.35294 18.0469V14.5312C2.35294 13.8851 2.88074 13.3594 3.52941 13.3594H20.4706C21.1193 13.3594 21.6471 13.8851 21.6471 14.5312V18.0469C21.6471 19.7575 21.1905 21.4368 20.3267 22.9028C19.9977 23.4611 20.1854 24.1791 20.7459 24.5066C21.3063 24.8344 22.0271 24.6474 22.3559 24.0891C23.4315 22.2638 24 20.1743 24 18.0469V14.5312C24 12.5926 22.4168 11.0156 20.4706 11.0156ZM7.82353 5.74059C7.82353 3.86765 9.40671 2.34375 11.3529 2.34375H12.5882C14.5345 2.34375 16.1176 3.86765 16.1176 5.74059V11.0156H7.82353V5.74059ZM10.8215 22.8516V20.2792C10.2213 19.8933 9.82353 19.2215 9.82353 18.457C9.82353 17.2598 10.798 16.2891 12 16.2891C13.202 16.2891 14.1765 17.2598 14.1765 18.457C14.1765 19.2233 13.7769 19.8965 13.1744 20.2819V22.8516C13.1744 23.4988 12.6475 24.0234 11.9979 24.0234C11.3481 24.0234 10.8215 23.4988 10.8215 22.8516Z" fill="#D3D3D3"/>
</svg>
